<?xml version="1.0" encoding="UTF-8"?>
<!-- Generator: visioncortex VTracer -->
<svg id="svg" version="1.1" xmlns="http://www.w3.org/2000/svg" style="display: block; background: rgb(255, 255, 255);" viewBox="0 0 2048 2048"><path d="M0 0 C5.51266293 5.2262984 5.51266293 5.2262984 11.375 8.9375 C18.20344459 14.01005884 18.05857496 28.75577842 8.125 21.5625 C0.57330999 14.01080999 -23.74508036 -21.76632366 0 0 Z " transform="translate(1139.25,660.8125)" style="fill: #000000;"/><path d="M0 0 C7.8736086 2.6245362 13.84400693 3.49025043 22 4 C41.66892526 23.66892526 -3.58771683 14.41228317 -14 4 C-19.74240607 -10.35601517 -8.4008497 -3.9264841 0 0 Z " transform="translate(1134,609)" style="fill: #000000;"/><path d="M0 0 C12.56802008 4.00089367 12.56802008 4.00089367 24 1 C40.63496639 5.1587416 30.70214 26.21408222 11.9375 21.8125 C1.01218779 17.80194235 -23.46216053 -7.48792357 0 0 Z " transform="translate(1121,578)" style="fill: #000000;"/><path d="M0 0 C1.98 1.65 3.96 3.3 6 5 C6 5.66 6 6.32 6 7 C6.99 7.33 7.98 7.66 9 8 C15.35240778 18.16385245 15.98012062 20.22783114 9 30 C10.82624973 46.43624756 14.56182517 60.68196556 26 73 C26 79.67024264 24.5413768 80.4375 -39 18 C-38 13 -38 13 -35 5 C-33.6837862 -1.14233105 -32.99480617 -6.57132134 -32.9375 -12.875 C-30.66837413 -25.27955475 -6.19790906 -5.26397756 0 0 Z " transform="translate(1188,513)" style="fill: #000000;"/><path d="M0 0 C8.63806764 1.15953102 8.63806764 1.15953102 6 -9 C11.62040632 -9 10 -4.72759398 10 0 C16.80968821 1.70242205 14.98350219 -3.40926206 16 -9 C18 -5 18 -5 18 -3 C18.99 -3 19.98 -3 21 -3 C19.6 4 19.6 4 17 4 C16.690625 5.65 16.38125 7.3 16.0625 9 C15 14 15 14 12 14 C12.66 11.69 13.32 9.38 14 7 C7.34164507 9.14480548 7.34164507 9.14480548 8 17 C5 17 5 17 4.0625 11.5 C1.44838777 -2.03187508 -2 10.79525152 -2 17 C-5 15 -5 15 -7 6 C-11.98877662 6 -11 12.52118487 -11 16 C-14 15 -14 15 -15 6 C-16.74239601 0.77281197 -17.77810714 0.8165714 -18.9375 7 C-21.69467847 19.97495752 -25.08935585 3.44677923 -24 -2 C-23.34 -2 -22.68 -2 -22 -2 C-21.67 -4.64 -21.34 -7.28 -21 -10 C-18 -9 -18 -9 -17 -3 C-13.06840574 -2.50680304 -13.06840574 -2.50680304 -13 -9 C-9 -7 -9 -7 -8 -1 C0 -2.6 0 -2.6 0 0 Z " transform="translate(1062,430)" style="fill: #000000;"/><path d="M0 0 C-4 -2 -4 -2 -7 -7 C-9.31622777 -4.89459074 -9.31622777 -4.89459074 -11 -1 C-19.68021254 -1 -19.91800945 -6.93653168 0 0 Z " transform="translate(1072,407)" style="fill: #000000;"/><path d="M0 0 C-19.20060299 -4.26680067 -32.56503097 -20.82204057 -9 -30 C16.90500543 -36.78464428 22.47764507 -4.49552901 0 0 Z " transform="translate(1097,386)" style="fill: #000000;"/><path d="M0 0 C-26.08467031 7.89719376 -43.87387797 -21.91704068 -16.8125 -30.9375 C8.74867793 -32.31918529 31.40924167 -14.91145816 0 0 Z " transform="translate(1042.8125,380.9375)" style="fill: #000000;"/><path d="M0 0 C8.07650174 7.5671728 16.08827682 14.95755913 24.90234375 21.65625 C27.25359375 23.574375 29.60484375 25.4925 32.02734375 27.46875 C74.57432715 61.49786122 122.69816969 77.31761736 188.90234375 57.65625 C190.3855551 50.24019325 194.08546164 51.51539967 200.90234375 49.65625 C202.69346295 40.700654 193.4886346 37.59596813 186.90234375 32.65625 C185.32050929 24.74707769 187.37438608 17.50150848 188.71484375 9.59375 C189.25753906 6.34402344 189.80023438 3.09429687 190.359375 -0.25390625 C193.38617995 -16.12355957 197.26130335 -11.78845791 208.08984375 -3.65625 C213.26857005 0.21691505 218.4307202 4.01599567 223.77734375 7.65625 C232.21068557 13.7895895 233.24875813 15.0973853 230.90234375 25.65625 C228.95742601 37.32575642 235.9985498 35.65625 245.90234375 35.65625 C248.90234375 39.65625 248.90234375 39.65625 252.40234375 46.78125 C259.52205386 60.76639485 269.05831704 55.11450721 281.90234375 50.65625 C295.80763112 47.56618614 307.51498031 47.68774398 320.90234375 52.65625 C322.49046875 53.1925 324.07859375 53.72875 325.71484375 54.28125 C338.86357213 60.30114974 355.20525983 69.26208215 361.90234375 82.65625 C362.56234375 82.65625 363.22234375 82.65625 363.90234375 82.65625 C370.01679833 91.82793188 359.68040499 87.76741562 353.90234375 86.65625 C332.05143983 83.92488701 308.24770412 86.31088963 291.90234375 102.65625 C291.24234375 102.65625 290.58234375 102.65625 289.90234375 102.65625 C289.90234375 103.31625 289.90234375 103.97625 289.90234375 104.65625 C289.24234375 104.65625 288.58234375 104.65625 287.90234375 104.65625 C287.24234375 105.97625 286.58234375 107.29625 285.90234375 108.65625 C284.41734375 110.63625 284.41734375 110.63625 282.90234375 112.65625 C283.34442072 120.19179848 283.34442072 120.19179848 289.52734375 126.28125 C295.74788768 133.65910443 296.64593637 134.91265738 289.90234375 141.65625 C291.51548567 149.7219596 295.96021684 151.68932034 302.90234375 155.65625 C310.4072409 164.66212659 306.34600838 166.21258537 298.90234375 173.65625 C299.51861678 181.38786934 299.51861678 181.38786934 304.90234375 185.65625 C314.47377232 192.03720238 314.47377232 192.03720238 309.90234375 199.65625 C311.009117 206.2968895 313.24773531 211.1827987 316.08984375 217.28125 C317.5903125 220.50648438 317.5903125 220.50648438 319.12109375 223.796875 C321.06685433 227.8960897 323.06058057 231.97272363 325.08984375 236.03125 C327.4741093 240.7997811 329.67775001 245.65795935 331.83984375 250.53125 C334.27338116 255.99734942 336.78901314 261.42958878 339.46484375 266.78125 C343.2229218 274.2974061 346.53448576 281.95828887 349.90234375 289.65625 C351.54203125 292.92015625 351.54203125 292.92015625 353.21484375 296.25 C357.99339158 305.84759183 362.28701818 315.63323195 366.62109375 325.4375 C369.87921146 332.60535895 373.36372906 339.62345528 376.90234375 346.65625 C378.67193076 350.41793125 380.42177488 354.18895961 382.15234375 357.96875 C383.1784375 360.20140625 384.20453125 362.4340625 385.26171875 364.734375 C386.463125 367.34859375 387.66453125 369.9628125 388.90234375 372.65625 C398.21755269 392.85979336 407.55265485 413.04697987 417.234375 433.078125 C420.84784166 440.63307432 424.30868712 448.25451367 427.78125 455.875 C435.97095083 473.66889316 444.42242647 491.344208 452.83984375 509.03125 C455.13062161 513.89474761 457.38646566 518.77623352 459.51953125 523.7109375 C460.40898438 525.75539063 461.2984375 527.79984375 462.21484375 529.90625 C463.41560547 532.72929688 463.41560547 532.72929688 464.640625 535.609375 C468.57267141 542.64495371 472.12178981 538.04652697 478.90234375 534.65625 C481.06796875 534.6975 483.23359375 534.73875 485.46484375 534.78125 C501.37958984 534.4722258 521.76160118 512.65830755 492.90234375 511.65625 C473.75941937 500.17049537 508.9947491 481.05352355 519.90234375 478.65625 C521.67609375 478.264375 523.44984375 477.8725 525.27734375 477.46875 C553.64189749 473.99007832 580.6289333 480.35378943 607.15234375 490.03125 C626.41295753 496.55500628 643.28349691 484.74468186 659.90234375 475.65625 C662.84140625 474.0784375 662.84140625 474.0784375 665.83984375 472.46875 C667.51046875 471.540625 669.18109375 470.6125 670.90234375 469.65625 C672.63484375 468.7075 674.36734375 467.75875 676.15234375 466.78125 C681.03216042 463.5708443 684.19933958 460.13071337 687.90234375 455.65625 C688.56234375 455.65625 689.22234375 455.65625 689.90234375 455.65625 C690.56234375 454.00625 691.22234375 452.35625 691.90234375 450.65625 C692.72734375 448.903125 693.55234375 447.15 694.40234375 445.34375 C697.04085886 439.34112813 705.16059948 417.65625 694.90234375 417.65625 C694.90234375 420.62625 694.90234375 423.59625 694.90234375 426.65625 C688.69378236 458.73381719 637.82103958 496.34919408 605.46484375 483.90625 C574.97856284 472.54900869 542.11533825 466.95137706 510.90234375 478.65625 C507.90234375 478.65625 507.90234375 478.65625 507.90234375 472.65625 C504.56225256 472.91318009 501.22766629 473.25072286 497.90234375 473.65625 C493.74450727 465.34057704 499.72002088 461.02310382 504.90234375 454.65625 C514.35144594 440.79756678 517.83293774 434.51743797 509.90234375 418.65625 C501.70235008 377.65628164 567.95842795 367.65625 595.90234375 367.65625 C595.90234375 363.47702395 585.18300928 365.99902639 582.33984375 366.09375 C552.00109986 365.33250603 574.98583314 332.27875429 595.27734375 331.21875 C618.25752527 332.26330371 634.52584981 340.99955511 651.90234375 355.65625 C653.69671875 357.05875 655.49109375 358.46125 657.33984375 359.90625 C670.94901316 371.5275632 682.25306558 384.27585762 692.77734375 398.71875 C706.44092968 417.21457973 695.6991201 394.58152218 691.90234375 388.65625 C678.42945964 371.64673382 663.50612422 357.16880809 644.96484375 345.78125 C634.3743219 338.57532792 642.74315906 336.26378959 650.90234375 331.65625 C664.03559817 324.15153319 662.03961812 318.40503912 662.02734375 303.71875 C662.03121094 299.12646484 662.03121094 299.12646484 662.03515625 294.44140625 C661.87835498 284.06946353 661.42005198 274.72708291 658.90234375 264.65625 C660.22234375 262.34625 661.54234375 260.03625 662.90234375 257.65625 C660.91300208 249.69888332 650.22796442 246.78805331 643.46484375 243.28125 C581.86792929 210.00992394 592.70562727 154.78857505 632.96484375 108.71875 C653.52553077 84.26235386 662.34560598 63.9860367 651.90234375 32.65625 C689.6909968 32.65625 664.29377043 108.22601919 655.46484375 122.03125 C634.51716765 155.10652805 633.91828609 188.84755444 675.90234375 201.65625 C678.54234375 202.64625 681.18234375 203.63625 683.90234375 204.65625 C683.24234375 203.33625 682.58234375 202.01625 681.90234375 200.65625 C695.22927668 187.32931707 710.85477593 178.94800144 728.58984375 172.96875 C740.45910141 168.74679929 739.96912103 168.45591817 743.90234375 156.65625 C749.90234375 158.65625 749.90234375 158.65625 753.77734375 164.28125 C760.03075483 172.0598833 765.88031756 174.51280093 774.90234375 178.65625 C798.90234375 193.12683824 798.90234375 193.12683824 798.90234375 196.65625 C799.56234375 196.65625 800.22234375 196.65625 800.90234375 196.65625 C814.81399044 210.56789669 817.81898712 232.90604033 819.90234375 251.65625 C820.91818996 252.67209621 816.90774645 222.12942505 813.90234375 215.65625 C810.47734087 207.0937428 817.27487562 208.20504739 824.27734375 205.84375 C861.36626557 191.42028041 851.96222037 154.97639644 838.40234375 125.90625 C831.56738127 110.81986899 817.48333288 45.65625 848.90234375 45.65625 C847.70977416 51.02281315 846.41261605 56.37029694 844.90234375 61.65625 C841.89596125 86.45890565 852.86553891 103.53591635 866.96484375 123.15625 C903.75990945 174.70717752 893.94989024 228.00596591 835.52734375 256.78125 C824.44372753 262.41390742 823.19421262 264.81956585 822.46484375 276.90625 C821.90234375 284.65625 821.90234375 284.65625 819.90234375 293.65625 C819.34012953 298.90411214 818.8460702 304.15942766 818.39453125 309.41796875 C818.13027344 312.47498047 817.86601563 315.53199219 817.59375 318.68164062 C817.18962891 323.46438477 817.18962891 323.46438477 816.77734375 328.34375 C816.50019531 331.54384766 816.22304687 334.74394531 815.9375 338.04101562 C811.05752689 362.69773533 811.05752689 362.69773533 828.90234375 372.65625 C855.03232496 383.16831141 853.59368669 411.57380361 846.29296875 434.76953125 C838.72162153 461.37558567 865.34829431 500.43254156 889.77734375 509.09375 C895.90234375 511.65625 895.90234375 511.65625 899.90234375 518.65625 C903.34266471 524.2386576 906.77193011 529.49527067 910.90234375 534.59375 C921.09139825 548.39142797 897.02585994 544.08095324 889.90234375 542.65625 C891.7913875 560.5391975 897.50668819 576.41168055 908.90234375 590.65625 C905.83465131 596.79163488 900.3545168 599.60760664 894.90234375 603.65625 C879.50714946 619.05144429 891.21480658 610.44687759 899.26953125 603.99609375 C921.10668588 588.25345698 945.68375937 600.18634064 941.90234375 626.65625 C943.22234375 627.31625 944.54234375 627.97625 945.90234375 628.65625 C947.67609375 630.038125 949.44984375 631.42 951.27734375 632.84375 C957.5452971 637.09202949 958.94451639 636.97552579 965.90234375 634.65625 C977.12114975 633.92059059 982.558076 634.07055204 990.90234375 641.65625 C994.23018465 643.00323322 997.56298431 644.3380818 1000.90234375 645.65625 C1011.21882356 655.97272981 1014.69410507 660.61278499 1013.90234375 675.65625 C1014.56234375 676.97625 1015.22234375 678.29625 1015.90234375 679.65625 C1014.36718422 688.86720717 1010.46703166 695.09156209 1003.90234375 701.65625 C1014.3657683 714.73553069 1019.47223982 715.66791525 1031.15234375 703.78125 C1032.76625 702.15445313 1034.38015625 700.52765625 1036.04296875 698.8515625 C1045.53476968 688.53355218 1035.71198582 691.89019417 1026.90234375 692.65625 C1018.74285674 688.5765065 1056.16531131 664.15845061 1060.97265625 660.8828125 C1068.43965705 655.71960505 1075.51613604 650.40224913 1082.33984375 644.40625 C1088.90234375 638.65625 1088.90234375 638.65625 1090.90234375 638.65625 C1091.56234375 637.33625 1092.22234375 636.01625 1092.90234375 634.65625 C1093.23234375 633.99625 1093.56234375 633.33625 1093.90234375 632.65625 C1089.96831878 633.35657952 1086.05466338 634.17164812 1082.15234375 635.03125 C1042.80893507 643.64625869 1119.82582523 599.27973216 1132.65625 593.77734375 C1139.67935803 590.75229614 1182.38461669 571.25091938 1156.90234375 576.65625 C1120.8390296 583.1227753 1120.8390296 583.1227753 1140.90234375 570.65625 C1143.21234375 569.068125 1145.52234375 567.48 1147.90234375 565.84375 C1176.92499385 547.02437533 1205.88473335 541.94880119 1239.7734375 537.66015625 C1253.24881188 535.45290882 1241.17545813 533.09846906 1235.71484375 531.59375 C1232.87826172 530.80291016 1232.87826172 530.80291016 1229.984375 529.99609375 C1226.64837108 529.1165785 1223.28534271 528.33284979 1219.90234375 527.65625 C1224.87222444 512.74660794 1331.67705297 509.54945455 1351.21484375 517.09375 C1358.78940933 518.00269787 1357.49917957 513.48073035 1358.90234375 506.65625 C1366.19074942 492.52116021 1422.18176878 426.22540576 1408.90234375 474.65625 C1407.97584674 482.06822605 1407.73521453 489.20126542 1407.86328125 496.6640625 C1407.8994691 501.2888696 1407.66249171 505.91362363 1407.40234375 510.53125 C1409.64683345 521.19257609 1414.82182759 520.52241811 1424.90234375 522.65625 C1434.01999081 526.77389706 1434.01999081 526.77389706 1437.90234375 530.65625 C1455.89255179 527.05820839 1478.40034165 502.19619305 1489.08984375 488.15625 C1500.38486525 474.82442135 1489.32893619 539.38812277 1480.90234375 551.65625 C1477.96818322 555.0476823 1474.9801862 558.39465576 1471.90234375 561.65625 C1466.25255904 569.18929627 1473.91063047 575.08989412 1478.625 581.8671875 C1520.61103231 643.2198402 1520.61103231 643.2198402 1486.90234375 611.65625 C1459.90699372 586.44081316 1501.00164456 653.74284688 1507.90234375 662.65625 C1512.36950127 671.59056503 1504.65231236 681.07522152 1500.27734375 688.40625 C1484.34021922 718.4591134 1496.02010607 789.97482719 1514.90234375 816.65625 C1518.2408123 823.33318711 1515.86717496 828.72658759 1512.90234375 834.65625 C1514.55658671 849.54443667 1519.69936542 860.6999483 1527.671875 873.1484375 C1536.08085063 890.14310978 1518.88295448 906.46414905 1509.15234375 919.15625 C1505.17398462 924.83962018 1502.34970373 929.57628629 1499.52734375 935.78125 C1493.3806913 949.13432255 1486.69383475 951.74913766 1472.71484375 953.15625 C1464.43900258 953.99430987 1456.91361621 955.47079468 1448.90234375 957.65625 C1437.04046774 956.743798 1431.21142023 950.96532648 1422.90234375 942.65625 C1421.91234375 943.97625 1420.92234375 945.29625 1419.90234375 946.65625 C1409.58839856 959.03298423 1400.65678513 954.44301697 1387.90234375 947.65625 C1376.68348931 943.16870823 1375.14490381 952.89652939 1369.90234375 961.65625 C1350.57291677 985.9885875 1326.82906522 1008.62468298 1293.90234375 1007.65625 C1291.71609375 1007.594375 1289.52984375 1007.5325 1287.27734375 1007.46875 C1272.9467858 1006.07847199 1258.86249796 1003.14628855 1244.90234375 999.65625 C1237.90769386 999.65625 1238.65021746 1006.26970497 1237.08984375 1012.28125 C1236.46464844 1014.62476563 1235.83945313 1016.96828125 1235.1953125 1019.3828125 C1233.45081294 1027.8470611 1234.4776114 1030.86437612 1238.58984375 1038.53125 C1244.50488638 1049.67553322 1248.60003811 1060.4732727 1250.96484375 1072.84375 C1252.09203736 1081.74390309 1252.09203736 1081.74390309 1257.90234375 1086.65625 C1266.79310578 1099.99239305 1266.34483849 1110.66881931 1256.375 1123.46875 C1241.55419745 1147.28558554 1246.34947463 1188.10903729 1250.24609375 1215.1328125 C1251.75097035 1227.79885724 1250.08881162 1252.50408139 1237.08984375 1231.84375 C1227.45666363 1212.01898352 1227.45666363 1212.01898352 1217.90234375 1219.65625 C1212.70202389 1230.13568245 1207.20813489 1239.52401108 1199.90234375 1248.65625 C1198.37609375 1250.574375 1196.84984375 1252.4925 1195.27734375 1254.46875 C1190.90234375 1259.65625 1190.90234375 1259.65625 1183.90234375 1266.65625 C1181.81676415 1272.9129888 1190.02004351 1275.15094074 1194.49609375 1278.40625 C1200.55068584 1282.87204842 1206.20739745 1287.74296299 1211.90234375 1292.65625 C1214.25359375 1294.656875 1216.60484375 1296.6575 1219.02734375 1298.71875 C1225.07559525 1303.94223993 1231.00586791 1309.26313185 1236.90234375 1314.65625 C1239.55801359 1317.00209169 1242.22594776 1319.33408289 1244.90234375 1321.65625 C1247.19171875 1323.6775 1249.48109375 1325.69875 1251.83984375 1327.78125 C1268.83896445 1342.44320178 1286.31074449 1354.05623036 1306.52734375 1363.84375 C1325.2189797 1373.09487146 1330.53173007 1383.69839341 1331.83984375 1403.96875 C1332.51760354 1413.94150116 1333.56878157 1423.74978808 1334.90234375 1433.65625 C1335.86688639 1449.73196061 1329.65423412 1460.75398156 1319.52734375 1472.90625 C1307.13446581 1488.31361177 1298.59974501 1506.55310258 1290.90234375 1524.65625 C1289.97421875 1526.739375 1289.04609375 1528.8225 1288.08984375 1530.96875 C1273.64193826 1565.81369854 1262.9405902 1601.55293115 1255.5546875 1638.52734375 C1250.24504167 1658.22198749 1238.56178334 1667.00683082 1220.83984375 1675.59375 C1214.69702118 1678.76215322 1209.43904624 1682.53921482 1203.90234375 1686.65625 C1203.24234375 1686.65625 1202.58234375 1686.65625 1201.90234375 1686.65625 C1201.57234375 1687.64625 1201.24234375 1688.63625 1200.90234375 1689.65625 C1199.25234375 1691.30625 1197.60234375 1692.95625 1195.90234375 1694.65625 C1192.22276743 1699.79377165 1188.6624005 1705.00633113 1185.08984375 1710.21875 C1173.26399837 1725.57469848 1156.3819603 1733.46743157 1139.5390625 1742.2109375 C1135.19630425 1744.50122112 1130.92109638 1746.91832237 1126.65234375 1749.34375 C1062.07672349 1785.27695805 1075.76753413 1668.60192468 1106.90234375 1642.65625 C1122.24131138 1638.25199197 1135.87150631 1638.48939963 1150.90234375 1643.65625 C1172.51730793 1646.05791269 1168.05462321 1632.83471859 1166.15234375 1616.03125 C1165.45756789 1601.09356905 1178.83938125 1595.69631704 1189.90234375 1588.65625 C1218.55468822 1565.73437442 1232.58675499 1515.37670449 1243.90234375 1481.65625 C1244.70671875 1479.26375 1245.51109375 1476.87125 1246.33984375 1474.40625 C1255.46612378 1434.98072027 1230.13921299 1414.52753513 1196.46484375 1403.15625 C1194.77721924 1402.58237549 1193.08959473 1402.00850098 1191.35083008 1401.41723633 C1180.98620432 1397.92882988 1170.61160086 1394.77105604 1160.02734375 1392.03515625 C1149.86713133 1389.30150154 1139.9051754 1385.91025758 1129.90234375 1382.65625 C1125.88170871 1381.38478944 1121.86087428 1380.11395926 1117.83984375 1378.84375 C1077.93377288 1366.08088376 1077.93377288 1366.08088376 1066.64453125 1360.640625 C1058.86505165 1359.02577421 1060.06708225 1363.67183536 1058.90234375 1370.65625 C1054.14190364 1386.41252638 1049.38017853 1402.16435654 1043.46484375 1417.53125 C1028.08227007 1457.61415705 1011.85960778 1502.19683836 1015.90234375 1545.65625 C1015.90234375 1570.93744827 1006.61352923 1592.26313838 994.15234375 1613.90625 C989.51973529 1623.4439733 987.41975709 1632.27771538 985.90234375 1642.65625 C985.39960938 1645.95496094 985.39960938 1645.95496094 984.88671875 1649.3203125 C981.35835545 1673.62388957 978.506306 1698.08919711 977.90234375 1722.65625 C977.83789062 1724.90308594 977.7734375 1727.14992188 977.70703125 1729.46484375 C977.00387081 1751.58584342 977.00387081 1751.58584342 982.90234375 1772.65625 C983.2857112 1776.6137817 983.65896046 1780.5722954 984.02734375 1784.53125 C986.36989495 1804.34157483 995.81538601 1816.59393044 1012.90234375 1826.65625 C1024.30027796 1833.51952221 1030.0011094 1840.04918305 1035.08984375 1852.34375 C1041.25909041 1866.76101123 1048.60766746 1880.15067251 1056.65234375 1893.59375 C1070.26583165 1918.98814088 954.35566355 1908.95124493 934.90234375 1901.65625 C932.71484375 1896.96875 932.71484375 1896.96875 930.90234375 1890.65625 C929.99484375 1887.975 929.08734375 1885.29375 928.15234375 1882.53125 C924.93234606 1871.26125808 925.06566439 1865.85469133 931.90234375 1856.65625 C943.24672708 1840.55454464 938.94753663 1826.20362701 918.77734375 1820.71875 C897.2669238 1814.26562402 893.94707982 1786.15695295 900.02734375 1767.71875 C900.66542969 1765.72714844 901.30351563 1763.73554687 901.9609375 1761.68359375 C902.60160156 1759.69457031 903.24226563 1757.70554687 903.90234375 1755.65625 C912.33310713 1727.42807048 917.81286604 1698.82436241 921.90234375 1669.65625 C922.64484375 1665.139375 922.64484375 1665.139375 923.40234375 1660.53125 C927.06976333 1636.38740443 927.84208844 1615.29584255 921.83984375 1591.46875 C916.51387288 1569.99306101 915.84736911 1550.71493448 923.90234375 1529.90625 C933.73486244 1502.86682362 931.19023957 1474.20772302 929.40234375 1446.03125 C927.84714381 1419.9457483 927.69548862 1393.95355226 928.01367188 1367.82763672 C928.03880859 1365.02408691 928.06394531 1362.22053711 928.08984375 1359.33203125 C928.14205078 1355.5872644 928.14205078 1355.5872644 928.1953125 1351.7668457 C927.18430206 1330.67969543 902.34968637 1335.66329741 886.65234375 1335.15625 C883.73261719 1335.0325 880.81289062 1334.90875 877.8046875 1334.78125 C873.69966797 1334.64203125 873.69966797 1334.64203125 869.51171875 1334.5 C865.70592285 1334.36368164 865.70592285 1334.36368164 861.82324219 1334.22460938 C849.10344663 1335.34033663 882.58550583 1347.48701627 888.328125 1349.03125 C956.68713065 1373.3159181 801.3713447 1375.89410384 789.90234375 1373.65625 C780.11103089 1371.07109611 780.11103089 1371.07109611 778.90234375 1379.65625 C744.50566334 1382.01938072 722.58924818 1382.47411015 726.90234375 1343.65625 C726.90234375 1328.27088844 718.31359018 1331.14011453 704.77734375 1329.15625 C684.37116293 1326.14940934 664.86180665 1322.28911773 644.96484375 1316.78125 C640.37255859 1315.51667969 640.37255859 1315.51667969 635.6875 1314.2265625 C627.96620816 1311.96750957 620.45952269 1309.40341994 612.90234375 1306.65625 C608.19507565 1306.65625 607.9897957 1314.93341815 606.6640625 1318.8046875 C595.15479714 1350.49982627 575.46168553 1378.01450744 552.90234375 1402.65625 C551.60296875 1404.1825 550.30359375 1405.70875 548.96484375 1407.28125 C545.90234375 1410.65625 545.90234375 1410.65625 543.90234375 1410.65625 C543.24234375 1411.97625 542.58234375 1413.29625 541.90234375 1414.65625 C537.90234375 1418.65625 537.90234375 1418.65625 535.90234375 1418.65625 C535.24234375 1419.97625 534.58234375 1421.29625 533.90234375 1422.65625 C526.71862042 1429.50111845 519.38594823 1436.1427424 511.90234375 1442.65625 C510.58234375 1443.97625 509.26234375 1445.29625 507.90234375 1446.65625 C507.24234375 1446.65625 506.58234375 1446.65625 505.90234375 1446.65625 C505.90234375 1447.31625 505.90234375 1447.97625 505.90234375 1448.65625 C502.24238763 1451.66443311 498.57377021 1454.66207696 494.90234375 1457.65625 C429.93691824 1516.45029188 486.84458294 1575.28561322 534.90234375 1627.65625 C535.95421875 1628.914375 537.00609375 1630.1725 538.08984375 1631.46875 C547.16815337 1641.4400081 557.37141469 1650.25816733 567.90234375 1658.65625 C581.75916374 1670.20359999 584.78128553 1681.21006154 585.27734375 1698.84375 C586.28512804 1722.93895616 595.44472945 1742.29868518 607.90234375 1762.65625 C610.20137374 1767.25430998 609.86580048 1773.79519899 610.33984375 1778.78125 C611.12103452 1786.84344212 611.93016601 1794.87228164 612.96484375 1802.90625 C624.28625435 1896.4965776 509.37748288 1817.29437609 501.90234375 1783.65625 C501.21572041 1767.86391322 505.56141935 1762.02558147 517.15234375 1751.96875 C529.47977488 1741.07951916 528.33542251 1728.35904896 511.02734375 1725.78125 C494.69782516 1722.78195067 490.53030609 1712.32231177 489.08984375 1697.03125 C487.17763951 1681.93490075 481.38666062 1671.10726047 472.90234375 1658.65625 C471.16984375 1656.078125 469.43734375 1653.5 467.65234375 1650.84375 C461.68898127 1642.2235263 455.34345091 1633.92299612 448.90234375 1625.65625 C447.10796875 1623.34625 445.31359375 1621.03625 443.46484375 1618.65625 C438.0744076 1611.87277979 432.58770993 1605.18135224 427.0625 1598.5078125 C424.69041607 1595.61674358 422.37538339 1592.67871118 420.08984375 1589.71875 C416.24652697 1584.82040508 412.07323186 1580.27804494 407.90234375 1575.65625 C406.54109375 1573.965 405.17984375 1572.27375 403.77734375 1570.53125 C395.36239298 1560.39015549 386.21671424 1550.97062049 376.90234375 1541.65625 C375.89171875 1540.480625 374.88109375 1539.305 373.83984375 1538.09375 C370.43681433 1534.25858986 366.81160624 1530.62274837 363.15234375 1527.03125 C339.81751518 1503.79593029 329.32098 1479.16567806 355.33984375 1454.03125 C361.12351339 1448.41701487 366.65672323 1442.77614061 371.90234375 1436.65625 C373.28421875 1435.191875 374.66609375 1433.7275 376.08984375 1432.21875 C386.68013999 1419.97801799 439.69418799 1340.85421106 395.71484375 1337.15625 C394.45671875 1338.64125 393.19859375 1340.12625 391.90234375 1341.65625 C376.79123264 1358.65625 376.79123264 1358.65625 373.90234375 1358.65625 C373.57234375 1359.64625 373.24234375 1360.63625 372.90234375 1361.65625 C370.27656568 1364.03550305 367.60242116 1366.36166125 364.90234375 1368.65625 C351.52065297 1380.81896085 339.3030606 1393.60057169 327.90234375 1407.65625 C320.8748009 1415.97349173 313.72805726 1424.07509004 305.90234375 1431.65625 C304.25234375 1433.30625 302.60234375 1434.95625 300.90234375 1436.65625 C294.90234375 1442.65625 294.90234375 1442.65625 292.90234375 1442.65625 C292.90234375 1443.31625 292.90234375 1443.97625 292.90234375 1444.65625 C287.13084669 1449.56982182 281.17669957 1454.22591459 275.21484375 1458.90625 C243.44255274 1482.71216489 243.44255274 1482.71216489 224.08984375 1516.34375 C219.75035378 1529.02186776 213.05198194 1539.79404048 206.08984375 1551.15625 C179.58424194 1594.58711562 173.75059207 1686.02689381 186.48828125 1734.71875 C188.42202514 1744.20584709 187.81940565 1753.18556378 187.421875 1762.81640625 C188.66673271 1780.53791725 200.69485209 1788.81296942 214.625 1797.59375 C225.99400134 1805.73374731 228.96337447 1817.21767762 233.46484375 1829.84375 C237.56526385 1840.35573608 242.38091052 1850.43998113 247.26953125 1860.60546875 C257.47929648 1884.06975115 151.10399639 1878.75707632 132.90234375 1869.65625 C130.77734375 1863.34375 130.77734375 1863.34375 128.90234375 1855.65625 C127.75765625 1852.0365625 127.75765625 1852.0365625 126.58984375 1848.34375 C123.23486815 1835.04810595 127.82282738 1829.70638012 135.90234375 1819.65625 C143.14346712 1802.76029546 131.74896433 1793.57956029 117.27734375 1786.34375 C96.27985051 1774.19814116 98.8498998 1750.03937886 106.03125 1730.0703125 C130.7848219 1658.44515456 131.06191288 1568.96986731 120.47265625 1494.56640625 C116.90104014 1463.81625932 127.8675828 1452.69290244 150.90234375 1434.65625 C152.38734375 1433.17125 152.38734375 1433.17125 153.90234375 1431.65625 C154.56234375 1431.65625 155.22234375 1431.65625 155.90234375 1431.65625 C155.90234375 1430.99625 155.90234375 1430.33625 155.90234375 1429.65625 C159.90234375 1425.65625 163.90234375 1421.65625 167.90234375 1417.65625 C183.25631554 1397.31722244 245.73210172 1230.18143606 190.90234375 1285.65625 C190.24234375 1285.65625 189.58234375 1285.65625 188.90234375 1285.65625 C188.90234375 1286.31625 188.90234375 1286.97625 188.90234375 1287.65625 C166.17564726 1305.09766823 174.39229376 1279.15404086 177.96484375 1263.78125 C181.86358244 1245.41944842 190.98546554 1161.02085978 169.90234375 1163.65625 C159.70308497 1148.45008237 161.08272332 1135.47587043 173.90234375 1122.65625 C174.64175603 1116.66245122 174.64175603 1116.66245122 174.50390625 1109.703125 C174.519375 1107.07988281 174.53484375 1104.45664063 174.55078125 1101.75390625 C174.54304687 1098.99917969 174.5353125 1096.24445313 174.52734375 1093.40625 C174.52734375 1054.48426366 179.40885988 1025.03106609 196.6328125 989.9375 C199.7131905 979.54951757 186.86854053 993.69005322 183.90234375 996.65625 C183.24234375 996.65625 182.58234375 996.65625 181.90234375 996.65625 C181.24234375 997.97625 180.58234375 999.29625 179.90234375 1000.65625 C178.54109375 1002.120625 177.17984375 1003.585 175.77734375 1005.09375 C132.39569139 1054.5933277 137.68232556 1139.18201004 144.90234375 1199.65625 C146.78071867 1215.52687039 147.25096025 1231.1162401 147.21484375 1247.09375 C147.21137939 1249.57068359 147.20791504 1252.04761719 147.2043457 1254.59960938 C147.10418066 1271.43619157 146.47168318 1287.991229 143.90234375 1304.65625 C143.46921875 1307.481875 143.03609375 1310.3075 142.58984375 1313.21875 C136.71117399 1339.12844266 127.80572832 1364.43015778 114.90234375 1387.65625 C113.44828125 1390.440625 113.44828125 1390.440625 111.96484375 1393.28125 C103.36022366 1408.38323628 92.84745303 1422.41603328 82.90234375 1436.65625 C72.47811975 1451.59529671 62.10127985 1466.56226656 51.90234375 1481.65625 C50.74347656 1483.33460937 49.58460938 1485.01296875 48.390625 1486.7421875 C33.14242201 1509.30456916 25.33323911 1530.97878144 26.08984375 1558.46875 C25.70143675 1567.14317294 15.61923123 1535.29118194 15.90234375 1526.65625 C19.72965716 1502.28230673 32.13500801 1481.42699024 44.90234375 1460.65625 C47.57365686 1456.23064171 56.11761466 1439.33334364 45.90234375 1454.65625 C45.24234375 1454.65625 44.58234375 1454.65625 43.90234375 1454.65625 C43.24234375 1455.97625 42.58234375 1457.29625 41.90234375 1458.65625 C40.43796875 1460.265 38.97359375 1461.87375 37.46484375 1463.53125 C31.58833266 1470.00201503 26.24580755 1476.74117921 20.90234375 1483.65625 C19.54109375 1485.38875 18.17984375 1487.12125 16.77734375 1488.90625 C14.02779513 1492.24760878 14.02779513 1492.24760878 12.90234375 1494.65625 C12.24234375 1494.65625 11.58234375 1494.65625 10.90234375 1494.65625 C10.24234375 1496.30625 9.58234375 1497.95625 8.90234375 1499.65625 C7.87109375 1501.079375 6.83984375 1502.5025 5.77734375 1503.96875 C-14.77032773 1534.1274291 -21.27964234 1571.86233599 -15.89453125 1607.65234375 C-15.77420556 1608.55891525 -45.69179882 1549.84772082 -50.41015625 1526.03125 C-55.23670957 1474.25549616 -39.10268683 1432.57175418 -15.63671875 1387.64257812 C0.14913466 1357.13241999 -15.61553729 1376.29003761 -28.09765625 1390.65625 C-29.85078125 1392.55375 -31.60390625 1394.45125 -33.41015625 1396.40625 C-54.01861271 1419.05290545 -70.57170181 1442.18839767 -74.78515625 1473.15625 C-78.43641292 1499.58439352 -81.16288411 1451.21821311 -80.28515625 1443.65625 C-75.52493974 1415.59602638 -61.61947914 1393.93898433 -46.09765625 1370.65625 C-42.0167393 1364.03668472 -38.04515812 1357.35603789 -34.09765625 1350.65625 C-32.73640625 1348.366875 -31.37515625 1346.0775 -29.97265625 1343.71875 C-11.33481257 1309.74977685 1.44440406 1273.69491418 3.46484375 1234.84375 C3.70656398 1230.76812384 3.95007993 1226.69260383 4.1953125 1222.6171875 C4.31310059 1220.60206055 4.43088867 1218.58693359 4.55224609 1216.51074219 C7.01334679 1175.3550973 11.1922947 1134.996878 23.90234375 1095.65625 C21.06060125 1092.8145075 6.79503215 1117.61798704 4.90234375 1120.65625 C4.02694467 1121.53164908 29.38692984 1060.68909142 39.90234375 1043.65625 C40.83175781 1042.13 41.76117188 1040.60375 42.71875 1039.03125 C52.9335613 1022.40620501 64.64581384 1006.82110905 76.90234375 991.65625 C78.88234375 989.18125 78.88234375 989.18125 80.90234375 986.65625 C81.56234375 986.65625 82.22234375 986.65625 82.90234375 986.65625 C83.56234375 985.33625 84.22234375 984.01625 84.90234375 982.65625 C120.59711543 944.33686275 172.12374401 925.24487554 223.8828125 926.94140625 C235.67764125 926.38266355 243.74529517 918.43390801 252.90234375 911.65625 C265.49192026 902.92294017 278.59657853 895.23185667 291.90234375 887.65625 C294.59970703 886.11904297 294.59970703 886.11904297 297.3515625 884.55078125 C311.8457812 876.46520752 326.77987669 869.48102945 341.90234375 862.65625 C344.76921875 861.356875 347.63609375 860.0575 350.58984375 858.71875 C392.52513943 841.1561048 432.20680021 844.03936861 476.6328125 847.48828125 C478.79505371 847.65279785 480.95729492 847.81731445 483.18505859 847.98681641 C487.96395856 848.46307372 492.726766 849.11474235 497.46728516 849.88427734 C499.8757373 850.26664551 502.28418945 850.64901367 504.765625 851.04296875 C508.07460815 851.63984497 508.07460815 851.63984497 511.45043945 852.2487793 C519.44353705 851.18493242 514.95241889 845.62368625 512.90234375 839.65625 C511.1590248 812.01219238 523.53730625 797.65625 550.90234375 797.65625 C548.22388364 791.01366894 545.24274758 784.97504345 541.90234375 778.65625 C539.60212211 774.07720414 537.31088755 769.49363578 535.02734375 764.90625 C533.81949219 762.50085938 532.61164062 760.09546875 531.3671875 757.6171875 C528.37954809 751.61496267 525.4615922 745.58945906 522.58984375 739.53125 C515.26968086 724.11980915 507.5582817 708.90269053 499.90234375 693.65625 C499.20157715 692.1285498 498.50081055 690.60084961 497.77880859 689.02685547 C492.55775067 677.436697 492.55775067 677.436697 480.90234375 680.65625 C451.39849117 680.65625 437.18236954 659.37354474 425.38671875 634.96875 C422.66527693 629.81313572 422.66527693 629.81313572 415.90234375 623.65625 C406.957653 611.72999567 405.37035708 602.6164775 412.90234375 589.90625 C417.17745351 582.15761356 417.65120132 577.36252085 417.90234375 568.65625 C422.03366148 560.39361454 427.98048783 554.65625 437.90234375 554.65625 C436.23170833 550.33026639 436.23170833 550.33026639 433.58984375 545.15625 C432.72746094 543.3928125 431.86507812 541.629375 430.9765625 539.8125 C428.67213268 535.19778412 426.35801975 530.58790151 424.0390625 525.98046875 C419.92049502 517.69277536 415.95497488 509.34846202 412.02734375 500.96875 C405.95318916 488.04782134 399.78752599 475.17557289 393.52734375 462.34375 C392.38954468 460.01111084 392.38954468 460.01111084 391.22875977 457.63134766 C390.49326904 456.12362793 389.75777832 454.6159082 389 453.0625 C380.939235 436.52602119 373.08964724 419.91565922 365.4609375 403.17578125 C363.31523397 398.54695822 361.05901184 393.96958617 358.77734375 389.40625 C355.84752432 383.54661115 353.11233255 377.70417804 350.46484375 371.71875 C347.07964585 364.11214689 343.34440383 356.7894785 339.38671875 349.4609375 C335.15890786 341.28451078 331.40994685 332.88561366 327.56640625 324.5234375 C323.56696433 315.93614962 319.43727809 307.41646051 315.27734375 298.90625 C309.64532849 287.36112068 304.17262986 275.76969004 298.87109375 264.0703125 C287.4497175 233.57629093 287.4497175 233.57629093 266.90234375 211.65625 C265.90234375 210.65625 265.90234375 210.65625 266.02734375 205.03125 C265.76277216 191.53809882 262.46479589 190.65625 249.90234375 190.65625 C243.89079683 184.64470308 243.61027196 180.88642947 246.90234375 172.65625 C245.01382566 163.21365954 243.79074783 164.21204796 234.90234375 168.65625 C231.90234375 163.65625 231.90234375 163.65625 231.90234375 161.65625 C214.06156554 162.12574416 196.70651649 170.37469656 183.90234375 182.65625 C183.24234375 182.65625 182.58234375 182.65625 181.90234375 182.65625 C181.90234375 183.31625 181.90234375 183.97625 181.90234375 184.65625 C180.25234375 186.30625 178.60234375 187.95625 176.90234375 189.65625 C134.98521924 239.80709539 171.59052343 318.66602853 222.8828125 346.34375 C229.46874341 351.7712227 226.28054433 357.48009245 224.89453125 365.11328125 C219.06743147 403.54002195 229.22741834 442.68537686 242.3046875 478.5390625 C248.31057392 497.77552023 134.75461654 415.76811085 121.90234375 404.65625 C119.14890625 402.42875 119.14890625 402.42875 116.33984375 400.15625 C100.08569897 386.70454398 84.60973754 371.71056729 70.90234375 355.65625 C68.64390625 353.0265625 68.64390625 353.0265625 66.33984375 350.34375 C56.51921983 338.26551138 47.37693864 325.7154618 38.90234375 312.65625 C37.16984375 310.0575 35.43734375 307.45875 33.65234375 304.78125 C23.12089142 288.43283847 14.47707369 271.04454021 5.86328125 253.6328125 C3.54445434 248.95233074 1.17116946 244.29882108 -1.22265625 239.65625 C-34.30837025 171.35025981 -43.04691811 100.6272701 -35.09765625 25.65625 C-34.61684172 20.01055676 -34.13765042 14.36472503 -33.66015625 8.71875 C-30.05265866 -29.25391994 -25.3150055 -23.7463922 0 0 Z M763.46484375 206.46875 C765.15348175 216.76944182 765.39389642 227.01873948 765.59375 237.44140625 C766.70036749 256.14184107 770.08387055 223.13987211 769.90234375 217.65625 C767.90145009 196.31338426 756.02742189 164.5216907 763.46484375 206.46875 Z M683.71484375 211.21875 C681.86893171 219.8117888 679.04006047 227.21921961 675.64453125 235.28515625 C667.40945771 255.94669725 683.92462674 230.60425635 686.90234375 223.65625 C687.7050132 218.84023329 686.86292454 196.4724768 683.71484375 211.21875 Z M702.90234375 287.65625 C700.90234375 291.65625 700.90234375 291.65625 694.65234375 293.09375 C676.58234016 298.00407706 711.24132167 310.77236947 717.71484375 311.09375 C722.76292017 311.44056441 740.06226273 317.49633102 730.90234375 326.65625 C729.70977416 334.4326432 729.70977416 334.4326432 732.90234375 335.65625 C732.90234375 341.65625 732.90234375 341.65625 730.90234375 341.65625 C730.24234375 343.96625 729.58234375 346.27625 728.90234375 348.65625 C719.51217981 358.04641394 712.70162805 324.23924858 711.90234375 320.65625 C706.92367039 310.69890328 706.61622032 333.99059497 706.58984375 336.15625 C706.55246094 338.1671875 706.51507812 340.178125 706.4765625 342.25 C707.42882522 354.34111558 718.4635936 360.1999999 727.58984375 366.71875 C732.52763177 370.3785223 736.64342953 374.2452317 740.90234375 378.65625 C770.47623327 398.37217635 801.29916487 347.05307112 783.90234375 329.65625 C783.90234375 315.22497621 788.7943092 313.65625 801.90234375 313.65625 C809.90234375 310.8347613 809.90234375 310.8347613 810.90234375 306.65625 C811.56234375 306.65625 812.22234375 306.65625 812.90234375 306.65625 C814.58370343 300.56696839 814.58370343 300.56696839 810.90234375 295.65625 C810.90234375 287.65625 810.90234375 287.65625 812.58984375 280.15625 C817.12500897 254.2410202 788.07766093 249.92167676 770.90234375 260.65625 C765.90234375 260.65625 765.90234375 260.65625 757.90234375 255.65625 C729.1505425 243.57215962 702.44341292 257.13735001 702.90234375 287.65625 Z M750.52734375 432.46875 C784.50424776 444.12749157 746.45536079 446.11954923 729.734375 440.44140625 C724.57831451 438.53653992 719.76848323 436.2051802 714.90234375 433.65625 C702.91930473 433.65625 750.30862582 457.23614076 761.77734375 459.09375 C782.51648145 463.64180651 778.8170274 477.94819001 756.96484375 473.6953125 C738.63513125 469.63113518 722.06618813 464.02913328 706.90234375 452.65625 C692.90084215 473.65850241 759.1543296 486.49061955 773.96484375 488.71875 C807.45207629 495.07708529 752.43248862 505.12529023 739.96484375 503.46875 C698.36234375 494.11625 698.36234375 494.11625 686.90234375 482.65625 C658.15458799 506.61271314 766.27699832 518.5195451 779.90234375 516.65625 C806.03094276 516.65625 755.73537103 536.56393927 745.21484375 537.09375 C721.41401506 536.84502751 697.13243038 530.12685135 676.90234375 517.65625 C675.41734375 517.16125 675.41734375 517.16125 673.90234375 516.65625 C673.24234375 515.33625 672.58234375 514.01625 671.90234375 512.65625 C643.61024441 519.72927483 716.78255349 548.58977724 726.49609375 550.4453125 C731.90234375 551.65625 731.90234375 551.65625 738.90234375 554.65625 C748.09613462 554.65625 753.45364909 552.1820832 761.90234375 548.65625 C766.89842685 546.97787833 771.89789346 545.3095059 776.90234375 543.65625 C779.21234375 542.66625 781.52234375 541.67625 783.90234375 540.65625 C801.58299228 537.70947524 767.20724396 556.32384967 762.90234375 558.34375 C760.09734375 559.66761719 757.29234375 560.99148438 754.40234375 562.35546875 C727.5576046 574.1699503 682.14557821 566.74813136 662.90234375 543.65625 C635.562877 549.12414335 713.77604528 580.65473991 724.90234375 582.65625 C729.59870037 583.57369367 734.26028299 584.49573481 738.90234375 585.65625 C745.57896676 582.05170736 745.57896676 582.05170736 749.96484375 578.53125 C755.76758597 574.74419718 788.71568274 555.84291101 771.90234375 572.65625 C769.81921875 574.780625 767.73609375 576.905 765.58984375 579.09375 C758.90234375 585.65625 758.90234375 585.65625 750.90234375 591.65625 C750.90234375 592.31625 750.90234375 592.97625 750.90234375 593.65625 C726.16721812 606.02381281 683.42966963 596.18357588 663.90234375 576.65625 C643.08312789 581.86105397 712.43535123 611.08082161 722.90234375 612.65625 C724.90234375 613.65625 724.90234375 613.65625 716.90234375 617.65625 C714.92234375 619.63625 714.92234375 619.63625 712.90234375 621.65625 C698.59344005 623.44486296 684.77627856 617.57220654 672.90234375 609.65625 C660.90418115 609.65625 696.34338103 631.54474271 705.90234375 632.65625 C715.82815272 631.55338234 719.65765069 628.69493081 726.83984375 621.96875 C730.90234375 618.65625 730.90234375 618.65625 739.90234375 615.65625 C749.86221146 612.21333277 755.53204223 607.02655152 762.90234375 599.65625 C764.65546875 597.965 766.40859375 596.27375 768.21484375 594.53125 C774.56452742 587.9722361 779.57534445 581.07524897 784.69921875 573.546875 C796.89187589 555.67721348 796.89187589 555.67721348 799.90234375 574.65625 C809.68401787 590.9590402 811.90234375 561.8406961 811.90234375 555.65625 C813.90234375 555.65625 813.90234375 555.65625 816.90234375 564.65625 C823.76736261 581.86015269 831.70781793 598.15207531 841.90234375 613.65625 C844.99289562 619.83735374 842.73093075 622.87051625 838.90234375 627.65625 C842.52918897 645.79047609 857.16280441 594.0328339 856.90234375 584.65625 C857.89234375 583.00625 858.88234375 581.35625 859.90234375 579.65625 C860.31270247 572.26979296 858.99758985 557.46575781 851.90234375 571.65625 C843.56461858 568.87700828 830.94648232 561.74452713 826.90234375 553.65625 C826.24234375 553.65625 825.58234375 553.65625 824.90234375 553.65625 C824.24234375 552.33625 823.58234375 551.01625 822.90234375 549.65625 C821.25234375 547.34625 819.60234375 545.03625 817.90234375 542.65625 C822.64615144 542.65625 829.14091294 548.32156881 832.90234375 550.65625 C854.73161201 563.79080972 868.27464605 552.40085459 855.90234375 527.65625 C855.84046875 525.47 855.77859375 523.28375 855.71484375 521.03125 C854.52806702 508.79832064 849.85819002 498.8069041 844.90234375 487.65625 C844.05671875 485.325625 843.21109375 482.995 842.33984375 480.59375 C838.6076019 471.50239165 836.90234375 472.74587322 836.90234375 482.65625 C817.62358656 487.4759393 806.31442594 480.95110844 798.90234375 463.65625 C803.27750824 464.84515339 807.60490017 466.21141983 811.90234375 467.65625 C820.9696984 467.65625 844.18051338 456.79533481 825.90234375 447.65625 C825.24234375 449.96625 824.58234375 452.27625 823.90234375 454.65625 C811.89220797 461.86233147 794.74512239 455.4487539 791.90234375 442.65625 C797.96484375 441.28125 797.96484375 441.28125 804.90234375 440.65625 C816.16121527 433.90092709 816.25667643 418.52711654 801.90234375 415.65625 C802.89234375 418.13125 802.89234375 418.13125 803.90234375 420.65625 C801.45405647 437.79426095 783.0583994 431.70826855 770.90234375 427.65625 C766.60203125 427.1921875 766.60203125 427.1921875 762.21484375 426.71875 C753.90234375 425.65625 753.90234375 425.65625 747.90234375 421.65625 C699.61203492 399.70610962 707.5291614 418.44760358 750.52734375 432.46875 Z M520.90234375 428.65625 C527.05393891 426.60571828 528.10073392 423.64820087 526.90234375 417.65625 C521.2359855 417.65625 520.90234375 424.34993508 520.90234375 428.65625 Z M654.90234375 451.65625 C662.71027997 446.97148827 662.57767659 440.59131657 652.90234375 438.65625 C643.6065412 442.37457102 645.22685244 449.72115174 654.90234375 451.65625 Z M501.90234375 573.65625 C507.7919083 570.71146773 507.40482605 566.90997346 503.90234375 561.65625 C499.17090722 561.65625 501.69982898 570.48351856 501.90234375 573.65625 Z M519.08984375 554.21875 C543.57353691 563.82933287 558.02742268 580.25021705 566.90234375 604.65625 C567.89234375 606.96625 568.88234375 609.27625 569.90234375 611.65625 C571.34503438 638.52636305 558.69388502 652.76047936 534.90234375 664.65625 C534.90234375 662.65625 534.90234375 662.65625 539.90234375 657.65625 C549.90431841 644.32028379 535.02385096 656.40320532 530.90234375 660.65625 C528.59234375 662.30625 526.28234375 663.95625 523.90234375 665.65625 C524.96676972 672.04280584 527.33463044 676.74493156 530.265625 682.46484375 C538.76195924 699.19318183 546.80342604 716.15741144 554.42578125 733.30078125 C557.75590932 740.50205189 561.34380203 747.56518879 564.90234375 754.65625 C567.92020487 760.79341577 570.91240312 766.94294209 573.90234375 773.09375 C574.65773438 774.64384766 575.413125 776.19394531 576.19140625 777.79101562 C579.93114484 785.479327 583.61904658 793.18463915 587.21484375 800.94140625 C599.69340841 827.04857277 598.91028796 804.68008262 593.90234375 789.65625 C593.90234375 771.51805393 607.45086131 756.64390691 618.90234375 743.65625 C623.88937691 737.53523744 623.88937691 737.53523744 618.90234375 732.65625 C618.58984375 727.96875 618.58984375 727.96875 618.90234375 720.65625 C618.96035156 718.77550781 619.01835938 716.89476562 619.078125 714.95703125 C619.18511719 712.91902344 619.29210937 710.88101563 619.40234375 708.78125 C619.49515625 706.82445312 619.58796875 704.86765625 619.68359375 702.8515625 C622.37219486 691.39053856 635.8357343 688.01178648 645.90234375 684.65625 C648.27752539 677.53070509 645.61505825 668.43803625 642.90234375 661.65625 C642.46921875 659.67625 642.03609375 657.69625 641.58984375 655.65625 C638.77907661 645.66241127 630.83578285 641.12296955 621.90234375 636.65625 C619.90234375 631.65625 619.90234375 631.65625 618.33984375 625.71875 C615.58616276 617.74013584 611.50072789 611.71130512 606.90234375 604.65625 C602.67512128 594.67280971 599.90868745 585.43850395 598.90234375 574.65625 C595.5363342 567.9242309 590.82113131 578.09786659 588.90234375 580.65625 C583.90234375 586.65625 583.90234375 586.65625 577.90234375 591.65625 C577.90234375 592.31625 577.90234375 592.97625 577.90234375 593.65625 C575.92234375 594.64625 575.92234375 594.64625 573.90234375 595.65625 C572.58234375 596.64625 571.26234375 597.63625 569.90234375 598.65625 C568.91234375 596.01625 567.92234375 593.37625 566.90234375 590.65625 C554.69211831 562.57273149 506.98878075 549.52650108 519.08984375 554.21875 Z M509.90234375 587.65625 C510.90234375 590.65625 510.90234375 590.65625 510.90234375 590.65625 Z M460.90234375 644.65625 C456.95504838 640.28731761 456.95504838 640.28731761 450.90234375 637.65625 C436.66841786 626.82147059 428.16425643 612.32302757 426.90234375 594.65625 C416.24074549 594.65625 440.86066463 644.65625 460.90234375 644.65625 Z M774.90234375 612.65625 C770.24655208 613.11721947 765.57534355 613.42829879 760.90234375 613.65625 C757.05906971 616.55084074 757.05906971 616.55084074 759.90234375 620.65625 C759.90234375 623.65625 759.90234375 623.65625 751.90234375 629.65625 C753.95652001 635.81877877 761.1646425 634.72894475 766.90234375 635.65625 C768.55234375 635.98625 770.20234375 636.31625 771.90234375 636.65625 C792.84636504 637.84714461 792.84636504 637.84714461 788.90234375 623.65625 C787.58234375 621.01625 786.26234375 618.37625 784.90234375 615.65625 C783.58234375 614.33625 782.26234375 613.01625 780.90234375 611.65625 C782.22234375 611.32625 783.54234375 610.99625 784.90234375 610.65625 C807.04223544 599.58630416 747.44948181 595.49821129 774.90234375 612.65625 Z M759.90234375 651.65625 C756.93234375 653.63625 756.93234375 653.63625 753.90234375 655.65625 C753.90234375 660.94902076 759.42182936 660.39116358 763.90234375 661.65625 C765.55234375 662.64625 767.20234375 663.63625 768.90234375 664.65625 C793.34506597 667.36858587 793.34506597 667.36858587 793.90234375 651.65625 C793.09796875 649.92375 792.29359375 648.19125 791.46484375 646.40625 C784.21775136 632.97261532 765.96780709 641.95150866 759.90234375 651.65625 Z M760.90234375 681.65625 C757.93234375 683.63625 757.93234375 683.63625 754.90234375 685.65625 C756.20689371 688.96499172 756.20689371 688.96499172 764.90234375 688.65625 C766.88234375 690.30625 768.86234375 691.95625 770.90234375 693.65625 C793.53773697 701.20138107 814.23228704 689.65334425 790.90234375 669.65625 C777.68935866 669.65625 768.70109213 670.73800227 760.90234375 681.65625 Z M835.90234375 696.65625 C835.57234375 699.29625 835.24234375 701.93625 834.90234375 704.65625 C839.51144367 707.24888776 839.51144367 707.24888776 847.90234375 707.65625 C853.92481566 713.67872191 853.92481566 713.67872191 853.76171875 720.7734375 C853.64748198 728.87608838 857.76860735 769.02040283 874.46484375 752.03125 C887.62076215 739.06062623 915.62575563 732.10307377 925.90234375 752.65625 C932.25153555 750.53985273 929.84185374 742.00699945 930.3203125 736.234375 C931.38923348 725.98995116 934.36669798 716.98020465 938.21484375 707.46875 C942.48563097 696.91903632 942.48563097 696.91903632 931.90234375 698.65625 C920.73282092 699.12164678 910.84144848 697.77349608 899.90234375 695.65625 C891.78840677 694.23530554 891.78840677 694.23530554 886.90234375 698.65625 C875.6695307 700.90281261 849.98036437 684.81229124 844.90234375 674.65625 C835.09423147 674.65625 835.90234375 689.61925749 835.90234375 696.65625 Z M778.40234375 701.53125 C776.14390625 701.69367187 773.88546875 701.85609375 771.55859375 702.0234375 C752.69693895 704.13365026 771.03102538 712.63792491 778.90234375 715.65625 C781.29484375 717.1 783.68734375 718.54375 786.15234375 720.03125 C808.83190995 732.21101704 808.28898958 712.98766071 793.90234375 700.65625 C788.72031915 700.65625 783.56827356 701.14793329 778.40234375 701.53125 Z M941.77734375 763.78125 C941.77476562 766.40320313 941.7721875 769.02515625 941.76953125 771.7265625 C941.83494676 775.13971273 946.90234375 793.04839099 946.90234375 782.65625 C948.88234375 781.66625 948.88234375 781.66625 950.90234375 780.65625 C954.90935646 777.43109343 958.91322299 774.20162343 962.87890625 770.92578125 C965.99110393 768.39674294 969.20903094 765.99750865 972.46484375 763.65625 C978.44401377 758.43806525 974.4251745 754.66147342 971.21484375 747.96875 C965.6851844 736.40493643 961.90787779 724.48286564 958.65234375 712.09375 C952.77112237 690.45925706 941.7684069 754.71035186 941.77734375 763.78125 Z M986.90234375 747.65625 C992.6718926 744.77147558 996.38613509 740.22687081 1000.90234375 735.65625 C1003.21234375 733.67625 1005.52234375 731.69625 1007.90234375 729.65625 C1000.42179203 699.73404311 957.87570707 704.11629499 986.90234375 747.65625 Z M929.90234375 786.65625 C930.95598736 777.48199169 930.95598736 777.48199169 926.90234375 770.65625 C921.906895 776.48427354 916.96041997 786.65625 929.90234375 786.65625 Z M1271.6015625 878.03515625 C1270.43202966 882.59230144 1269.19485861 887.13244798 1267.90234375 891.65625 C1267.90234375 905.1770206 1367.29347133 935.87399484 1375.90234375 918.65625 C1375.29701986 911.34927969 1375.29701986 911.34927969 1370.90234375 904.65625 C1370.90234375 891.57514157 1376.18909033 888.42685274 1385.90234375 880.65625 C1386.1418322 871.10403425 1386.1418322 871.10403425 1380.02734375 864.71875 C1373.34970439 859.42549929 1368.3685805 853.18226735 1362.90234375 846.65625 C1352.41996943 834.67639364 1344.1153149 829.18292176 1329.55078125 822.8515625 C1317.84274742 817.32222215 1308.84514621 809.86207607 1299.90234375 800.65625 C1286.61620924 800.65625 1274.28567709 867.48326374 1271.6015625 878.03515625 Z M1382.90234375 908.65625 C1387.39843563 903.13718893 1387.39843563 903.13718893 1386.90234375 896.65625 C1379.16471259 896.65625 1372.96681079 906.17236676 1382.90234375 908.65625 Z M1402.90234375 940.65625 C1412.59572042 939.57920815 1418.09579799 938.95740914 1410.58984375 929.46875 C1405.39977305 922.69526789 1404.09767657 917.02466039 1403.40234375 908.59375 C1403.08024512 905.41302604 1371.84496548 925.12756087 1402.90234375 940.65625 Z M1258.33984375 928.15625 C1257.57637725 931.47675953 1256.81205401 934.79707219 1256.046875 938.1171875 C1254.98533203 942.83902344 1254.98533203 942.83902344 1253.90234375 947.65625 C1252.80111106 952.03729286 1251.68077675 956.41366001 1250.52734375 960.78125 C1250.08648438 962.47507812 1249.645625 964.16890625 1249.19140625 965.9140625 C1248.26898617 969.30745032 1247.25265844 972.67585999 1246.17578125 976.0234375 C1237.54087659 1007.4375385 1327.88519468 985.53189018 1341.90234375 973.65625 C1343.55234375 972.33625 1345.20234375 971.01625 1346.90234375 969.65625 C1367.26064439 949.32340235 1367.26064439 949.32340235 1352.90234375 937.65625 C1297.16454447 923.68269508 1297.16454447 923.68269508 1274.35546875 914.3984375 C1260.4586657 908.96161806 1261.18670395 915.36372902 1258.33984375 928.15625 Z M114.08984375 1297.21875 C110.22578085 1327.96777362 103.49621645 1357.77310008 92.90234375 1386.90625 C86.39053259 1405.62770708 111.5079948 1359.97290708 114.90234375 1350.65625 C120.23505397 1332.33360464 122.38817852 1314.51594861 122.15234375 1295.53125 C122.1471875 1293.83226562 122.14203125 1292.13328125 122.13671875 1290.3828125 C121.90402295 1253.26783266 116.80181488 1275.08411425 114.08984375 1297.21875 Z " transform="translate(303.09765625,85.34375)" style="fill: #000000;"/></svg>