<svg version="1.0" xmlns="http://www.w3.org/2000/svg" width="800.000000" height="800.000000" viewBox="0 0 800.000000 800.000000" preserveAspectRatio="xMidYMid meet"> 
   <metadata> 
     <rdf:RDF xmlns:rdf="http://www.w3.org/1999/02/22-rdf-syntax-ns#" xmlns:rdfs="http://www.w3.org/2000/01/rdf-schema#" xmlns:dc="http://purl.org/dc/elements/1.1/"> 
       <rdf:Description dc:format="image/svg+xml" dc:Label="1" dc:ContentProducer="001191330110MACRLGPT8B00000" dc:ProduceID="372334282" dc:ReservedCode1="5zDPtzKXKWDC1xWsvF1WYFii3GKdOQcW+Tu2E1XjoCA=" dc:ContentPropagator="001191330110MACRLGPT8B00000" dc:PropagateID="372334282" dc:ReservedCode2="5zDPtzKXKWDC1xWsvF1WYFii3GKdOQcW+Tu2E1XjoCA="/> 
     </rdf:RDF> 
   </metadata> 
   <g transform="translate(0.000000,800.000000) scale(0.100000,-0.100000)" fill="#000000" stroke="none"> 
     <path d="M6018 6715 c-3 -3 -34 -13 -68 -21 -130 -30 -177 -65 -426 -316 -341 -345 -379 -382 -499 -481 -435 -359 -850 -612 -1177 -716 -73 -23 -368 -76 -1208 -216 -729 -121 -1126 -191 -1155 -204 -54 -24 -131 -94 -155 -141 -40 -79 -65 -220 -41 -234 4 -3 11 -24 15 -47 8 -49 35 -104 73 -149 26 -31 423 -383 581 -514 40 -34 69 -62 65 -63 -5 -1 -69 -9 -145 -17 -155 -18 -236 -43 -327 -105 -130 -89 -206 -249 -181 -384 40 -212 201 -465 383 -603 125 -95 294 -153 400 -140 107 14 131 33 441 358 323 337 725 755 976 1013 189 195 621 643 790 820 63 66 216 233 340 370 414 459 710 774 727 771 13 -1 406 -344 412 -359 2 -5 -174 -188 -390 -406 -613 -617 -1041 -1052 -1930 -1966 -301 -309 -771 -810 -798 -849 -111 -165 -87 -369 61 -513 140 -134 374 -256 564 -292 33 -6 83 -16 111 -23 44 -9 66 -8 130 6 147 33 220 74 274 152 58 85 71 141 78 333 l6 173 300 -262 c165 -145 318 -277 340 -293 60 -43 127 -75 197 -93 98 -25 117 -27 131 -16 6 5 30 13 52 17 100 17 207 110 245 213 18 46 25 100 36 277 8 121 18 285 24 365 5 80 27 435 49 790 42 664 55 797 97 958 70 269 221 549 450 837 92 115 156 184 468 502 104 106 207 217 229 246 52 68 101 175 120 262 48 219 48 214 6 423 -41 205 -186 388 -377 474 -94 43 -275 82 -294 63z m127 -444 c91 -42 144 -135 152 -265 9 -134 -26 -236 -114 -336 l-40 -44 -164 144 c-90 79 -185 162 -210 185 l-45 42 110 116 c146 153 178 177 230 177 22 0 59 -9 81 -19z m-2165 -1518 c-36 -38 -115 -120 -175 -183 -206 -215 -639 -663 -930 -964 -159 -164 -339 -351 -399 -415 -61 -64 -172 -181 -249 -260 l-139 -144 -35 17 c-50 24 -135 108 -183 180 -40 62 -83 164 -74 177 6 10 112 26 289 44 212 22 259 32 350 75 62 29 103 59 173 126 104 97 128 132 109 157 -7 9 -100 91 -208 184 -315 270 -748 648 -748 653 -1 3 468 83 1041 178 866 144 1058 179 1137 207 53 18 98 33 101 34 2 0 -25 -29 -60 -66z m1001 -930 c-20 -92 -31 -200 -51 -523 -48 -777 -101 -1555 -106 -1559 -3 -3 -8 -1 -12 4 -4 6 -36 35 -72 66 -60 51 -424 369 -763 667 -77 67 -147 122 -156 122 -19 0 -193 -180 -226 -235 -55 -91 -58 -112 -64 -390 l-6 -260 -55 2 c-91 4 -201 45 -314 117 -72 47 -82 60 -63 87 19 26 672 713 927 974 102 104 291 297 421 430 130 132 305 311 389 398 84 86 155 155 158 153 2 -3 -1 -27 -7 -53z"/> 
   </g> 
 </svg>