<?xml version="1.0" encoding="UTF-8"?>
<!-- Generator: visioncortex VTracer -->
<svg id="svg" version="1.1" xmlns="http://www.w3.org/2000/svg" style="display: block;" viewBox="0 0 2048 2048"><path d="M0 0 C-2048 0 -2048 0 -2048 -2048 C0 -2048 0 -2048 0 0 Z " transform="translate(2048,2048)" style="fill: #FDFEFD;"/><path d="M0 0 C7.23799554 6.78601869 14.51654689 13.52627851 21.8125 20.25 C23.61267578 21.96123047 23.61267578 21.96123047 25.44921875 23.70703125 C31.37238673 29.31547192 36.86051126 33.90500703 43.8125 38.25 C45.4625 39.9 47.1125 41.55 48.8125 43.25 C56.56074572 49.41697108 64.38241033 55.06225251 72.8125 60.25 C76.89625 62.84875 76.89625 62.84875 81.0625 65.5 C88.50222435 70.31650914 88.50222435 70.31650914 95.8125 73.25 C97.83375 74.178125 99.855 75.10625 101.9375 76.0625 C124.65825535 85.25899621 231.15852208 100.59602208 206.8125 76.25 C206.8125 66.3758815 208.1196894 68.38856212 218.8125 66.25 C220.57821073 61.18408244 220.57821073 61.18408244 217.8125 59.25 C217.8125 58.59 217.8125 57.93 217.8125 57.25 C215.8325 56.59 213.8525 55.93 211.8125 55.25 C209.8125 54.25 209.8125 54.25 209.8125 52.25 C208.4925 51.59 207.1725 50.93 205.8125 50.25 C200.90544674 45.34294674 204.17043399 37.99723102 205.8125 32.25 C206.48548737 27.9176438 207.15203778 23.58428332 207.8125 19.25 C208.4725 16.61 209.1325 13.97 209.8125 11.25 C210.1425 8.94 210.4725 6.63 210.8125 4.25 C215.8125 5.25 215.8125 5.25 220 8.6875 C224.00860452 11.83403903 228.12257616 14.84928349 232.3125 17.75 C254.04107143 32.79285714 254.04107143 32.79285714 248.8125 43.25 C248.8125 55.31742719 250.98194852 52.25 264.8125 52.25 C271.5625 65.625 271.5625 65.625 273.8125 71.25 C279.55135931 74.11942965 284.56801857 72.3616767 289.875 69.9375 C295.19155703 67.87793286 336.8125 57.12986375 336.8125 69.25 C338.276875 69.6625 339.74125 70.075 341.25 70.5 C350.62844196 73.45052107 356.35300197 76.72293923 363.8125 83.25 C365.1325 83.91 366.4525 84.57 367.8125 85.25 C369.4625 86.9 371.1125 88.55 372.8125 90.25 C374.17375 91.590625 375.535 92.93125 376.9375 94.3125 C383.57064073 101.05262687 388.31199552 110.99974776 372.8125 103.25 C348.26070117 101.91450557 348.26070117 101.91450557 325.8125 108.25 C324.8225 108.25 323.8325 108.25 322.8125 108.25 C322.8125 108.91 322.8125 109.57 322.8125 110.25 C319.8425 111.9 316.8725 113.55 313.8125 115.25 C311.8325 117.23 311.8325 117.23 309.8125 119.25 C309.1525 119.25 308.4925 119.25 307.8125 119.25 C307.8125 119.91 307.8125 120.57 307.8125 121.25 C306.1625 122.9 304.5125 124.55 302.8125 126.25 C298.63950639 132.50949042 301.9604779 136.42968746 306.1875 141.5625 C308.84509697 144.830626 318.6340478 157.25 306.8125 157.25 C308.02356903 164.36114652 308.02356903 164.36114652 312.875 166.9375 C323.75100446 174.23405996 331.40146776 181.45551612 315.8125 189.25 C318.30824447 197.98510565 321.29574777 201.23883185 328.8125 206.25 C332.83273328 210.27023328 331.40262793 213.65987207 327.8125 217.25 C330.74253925 228.97015698 336.85729907 239.82839837 342.8125 250.25 C343.4725 252.23 344.1325 254.21 344.8125 256.25 C345.4725 257.24 346.1325 258.23 346.8125 259.25 C347.4725 261.23 348.1325 263.21 348.8125 265.25 C350.1325 267.725 351.4525 270.2 352.8125 272.75 C356.8125 280.25 356.8125 280.25 358.8125 286.25 C359.4725 286.91 360.1325 287.57 360.8125 288.25 C361.26625 289.77625 361.72 291.3025 362.1875 292.875 C363.3770107 300.29411932 363.3770107 300.29411932 367.8125 304.25 C371.8125 314.25 371.8125 314.25 371.8125 318.25 C372.4725 318.25 373.1325 318.25 373.8125 318.25 C377.4112447 325.24755914 380.64632649 331.6683927 382.8125 339.25 C384.75776203 342.94599785 386.74996368 346.61814257 388.8125 350.25 C388.8125 351.24 388.8125 352.23 388.8125 353.25 C389.4725 353.25 390.1325 353.25 390.8125 353.25 C391.8125 355.25 391.8125 355.25 391.8125 361.25 C392.4725 361.25 393.1325 361.25 393.8125 361.25 C396.8125 366.25 396.8125 366.25 399.8125 375.25 C400.8025 376.57 401.7925 377.89 402.8125 379.25 C403.8025 381.56 404.7925 383.87 405.8125 386.25 C407.46378815 389.59097835 409.12764355 392.92582377 410.8125 396.25 C410.8125 397.57 410.8125 398.89 410.8125 400.25 C411.4725 400.25 412.1325 400.25 412.8125 400.25 C413.699375 402.51875 414.58625 404.7875 415.5 407.125 C419.04095127 417.27315971 419.04095127 417.27315971 424.8125 426.25 C424.8125 427.9 424.8125 429.55 424.8125 431.25 C425.4725 431.25 426.1325 431.25 426.8125 431.25 C427.864375 433.704375 428.91625 436.15875 430 438.6875 C432.71602738 444.78743034 435.43394771 450.51669914 438.8125 456.25 C438.8125 457.57 438.8125 458.89 438.8125 460.25 C439.4725 460.25 440.1325 460.25 440.8125 460.25 C441.72 462.56 442.6275 464.87 443.5625 467.25 C446.729958 475.34387129 446.729958 475.34387129 450.8125 483.25 C450.8125 484.24 450.8125 485.23 450.8125 486.25 C451.4725 486.25 452.1325 486.25 452.8125 486.25 C457.8125 497.25 457.8125 497.25 458.8125 503.25 C459.4725 503.25 460.1325 503.25 460.8125 503.25 C466.8125 516.25 466.8125 516.25 466.8125 520.25 C467.4725 520.25 468.1325 520.25 468.8125 520.25 C469.740625 522.6321875 469.740625 522.6321875 470.6875 525.0625 C472.52202798 530.02868339 472.52202798 530.02868339 474.8125 533.25 C474.8125 534.57 474.8125 535.89 474.8125 537.25 C475.4725 537.25 476.1325 537.25 476.8125 537.25 C480.8125 546.25 480.8125 546.25 483.8125 555.25 C490.80094006 555.14652349 490.80094006 555.14652349 494.8125 551.25 C499.7625 551.25 504.7125 551.25 509.8125 551.25 C524.51081926 538.20600559 524.51081926 538.20600559 522.875 529.375 C499.02311379 528.88320853 503.39534957 504.25 519.8125 504.25 C520.1425 503.26 520.4725 502.27 520.8125 501.25 C528.8125 497.25 528.8125 497.25 535.625 495.8125 C540.76863583 494.71298036 540.76863583 494.71298036 545.8125 493.25 C571.39336671 492.68386606 594.51054593 495.78527443 618.8125 504.25 C621.7825 505.24 624.7525 506.23 627.8125 507.25 C630.8125 508.25 630.8125 508.25 630.8125 510.25 C641.14417906 512.95814718 641.14417906 512.95814718 640.8125 509.25 C647.8125 506.25 647.8125 506.25 654.8125 504.25 C658.83566126 502.2970091 662.839642 500.30338728 666.8125 498.25 C668.4625 497.92 670.1125 497.59 671.8125 497.25 C671.8125 496.59 671.8125 495.93 671.8125 495.25 C673.50375 494.445625 675.195 493.64125 676.9375 492.8125 C684.21553091 489.04115671 690.95535495 484.73351791 697.8125 480.25 C699.1325 479.59 700.4525 478.93 701.8125 478.25 C702.1425 477.59 702.4725 476.93 702.8125 476.25 C703.4725 476.25 704.1325 476.25 704.8125 476.25 C705.1425 474.93 705.4725 473.61 705.8125 472.25 C706.4725 472.25 707.1325 472.25 707.8125 472.25 C708.4725 470.6 709.1325 468.95 709.8125 467.25 C710.6375 465.47625 711.4625 463.7025 712.3125 461.875 C715.2999907 455.15314592 722.70395199 437.54715066 712.8125 434.25 C712.8125 439.53 712.8125 444.81 712.8125 450.25 C708.8125 458.25 708.8125 458.25 706.8125 458.25 C706.8125 459.57 706.8125 460.89 706.8125 462.25 C706.1525 462.25 705.4925 462.25 704.8125 462.25 C704.1525 463.9 703.4925 465.55 702.8125 467.25 C694.15104637 476.65813067 684.56269657 483.21420147 672.8125 488.25 C670.8325 489.24 668.8525 490.23 666.8125 491.25 C665.8225 491.25 664.8325 491.25 663.8125 491.25 C663.8125 491.91 663.8125 492.57 663.8125 493.25 C661.5025 494.24 659.1925 495.23 656.8125 496.25 C653.8425 498.23 653.8425 498.23 650.8125 500.25 C647.5125 501.24 644.2125 502.23 640.8125 503.25 C640.4825 503.58 640.1525 503.91 639.8125 504.25 C624.8125 504.25 624.8125 504.25 624.8125 499.25 C622.1725 498.92 619.5325 498.59 616.8125 498.25 C613.8425 497.26 610.8725 496.27 607.8125 495.25 C606.1625 494.92 604.5125 494.59 602.8125 494.25 C602.8125 493.59 602.8125 492.93 602.8125 492.25 C598.8525 491.92 594.8925 491.59 590.8125 491.25 C590.8125 490.59 590.8125 489.93 590.8125 489.25 C565.99801727 488.00457605 565.99801727 488.00457605 541.8125 491.25 C539.5025 491.25 537.1925 491.25 534.8125 491.25 C534.8125 491.91 534.8125 492.57 534.8125 493.25 C525.8125 495.25 525.8125 495.25 525.8125 489.25 C522.1825 489.58 518.5525 489.91 514.8125 490.25 C512.67927042 485.98354085 512.3557656 477.25 518.8125 477.25 C519.4725 475.93 520.1325 474.61 520.8125 473.25 C521.885 471.765 522.9575 470.28 524.0625 468.75 C534.0349401 454.58616426 534.0349401 454.58616426 529.8125 439.25 C529.8125 438.59 529.8125 437.93 529.8125 437.25 C529.1525 437.25 528.4925 437.25 527.8125 437.25 C521.1417725 403.8963625 560.91773147 391.42895371 586.8125 386.25 C589.4525 385.59 592.0925 384.93 594.8125 384.25 C601.0825 384.25 607.3525 384.25 613.8125 384.25 C613.8125 375.19461486 595.86168069 381.58515484 586.8125 381.25 C590.70624824 346.20626584 613.18084384 341.7735132 642.8125 354.25 C644.7925 354.91 646.7725 355.57 648.8125 356.25 C649.8025 357.24 650.7925 358.23 651.8125 359.25 C654.2875 360.735 654.2875 360.735 656.8125 362.25 C676.70401722 377.11629182 695.137441 393.1242048 709.8125 413.25 C711.7925 415.89 713.7725 418.53 715.8125 421.25 C715.8125 421.91 715.8125 422.57 715.8125 423.25 C724.88857616 423.25 697.38918162 390.82668162 692.8125 386.25 C690.5025 383.94 688.1925 381.63 685.8125 379.25 C678.80965715 373.24756327 671.68450782 368.05499179 663.8125 363.25 C663.8125 362.59 663.8125 361.93 663.8125 361.25 C662.1625 360.92 660.5125 360.59 658.8125 360.25 C658.8125 359.59 658.8125 358.93 658.8125 358.25 C658.1525 358.25 657.4925 358.25 656.8125 358.25 C656.8125 356.25 656.8125 356.25 659.8125 356.25 C659.8125 355.59 659.8125 354.93 659.8125 354.25 C666.8125 349.25 666.8125 349.25 671.8125 348.25 C671.8125 347.59 671.8125 346.93 671.8125 346.25 C673.4625 345.26 675.1125 344.27 676.8125 343.25 C677.1425 342.59 677.4725 341.93 677.8125 341.25 C678.4725 341.25 679.1325 341.25 679.8125 341.25 C679.67399792 332.68736478 679.5254545 324.12493289 679.375 315.5625 C679.33568359 313.12423828 679.29636719 310.68597656 679.25585938 308.17382812 C679.21396484 305.84384766 679.17207031 303.51386719 679.12890625 301.11328125 C679.07391968 297.88478394 679.07391968 297.88478394 679.01782227 294.59106445 C678.95456163 289.27432617 678.95456163 289.27432617 677.8125 284.25 C677.8125 277.25 677.8125 277.25 679.8125 275.25 C679.8125 266.13165155 668.33598866 263.59377274 660.8125 260.25 C645.89311231 251.83393515 627.8757685 239.87935467 622 223.0625 C620.0027438 217.22803081 620.0027438 217.22803081 616.8125 212.25 C615.89842978 204.93743823 615.71321747 198.10650604 615.75 190.75 C615.75902344 188.4090625 615.76804687 186.068125 615.77734375 183.65625 C615.8125 178.25 615.8125 178.25 617.8125 178.25 C617.8125 176.27 617.8125 174.29 617.8125 172.25 C623.14271969 159.81282072 628.79792091 150.45331479 637.8125 140.25 C639.359375 138.3525 640.90625 136.455 642.5 134.5 C646.49399695 129.63774285 650.63283298 124.9521254 654.8125 120.25 C657.82683987 116.59511291 660.83029739 112.93115635 663.8125 109.25 C664.4725 109.25 665.1325 109.25 665.8125 109.25 C665.8125 107.93 665.8125 106.61 665.8125 105.25 C666.4725 105.25 667.1325 105.25 667.8125 105.25 C668.1425 103.6 668.4725 101.95 668.8125 100.25 C670.2975 96.785 670.2975 96.785 671.8125 93.25 C675.66461869 81.69364393 676.5488664 70.85118192 672.875 59 C664.99378322 33.20692691 685.42556858 65.9116486 688.8125 73.25 C689.80785652 81.08843258 693.37922392 124.25 679.8125 124.25 C679.4825 125.57 679.1525 126.89 678.8125 128.25 C677.4925 130.56 676.1725 132.87 674.8125 135.25 C674.1525 136.9 673.4925 138.55 672.8125 140.25 C670.3375 144.21 670.3375 144.21 667.8125 148.25 C666.3275 151.715 666.3275 151.715 664.8125 155.25 C663.4925 157.56 662.1725 159.87 660.8125 162.25 C658.97938543 166.83278642 653.64376488 189.25 658.8125 189.25 C660.1325 192.22 661.4525 195.19 662.8125 198.25 C666.09078869 203.06375192 666.09078869 203.06375192 668.8125 204.25 C668.8125 204.91 668.8125 205.57 668.8125 206.25 C669.8025 206.58 670.7925 206.91 671.8125 207.25 C672.1425 207.91 672.4725 208.57 672.8125 209.25 C674.4625 210.24 676.1125 211.23 677.8125 212.25 C678.4725 212.91 679.1325 213.57 679.8125 214.25 C681.4625 214.58 683.1125 214.91 684.8125 215.25 C684.8125 215.91 684.8125 216.57 684.8125 217.25 C687.7825 217.58 690.7525 217.91 693.8125 218.25 C709.29149537 224.88385516 700.10819567 239.29849953 694.625 251.125 C685.0685432 271.93683924 699.37709172 249.12081657 702.8125 242.25 C703.4725 242.25 704.1325 242.25 704.8125 242.25 C706.50571451 230.05765164 706.50571451 230.05765164 700.8125 218.25 C701.8125 214.25 701.8125 214.25 704.8125 213.25 C704.8125 212.59 704.8125 211.93 704.8125 211.25 C707.64186621 209.32748193 710.47617281 207.4122335 713.3125 205.5 C714.8903125 204.43265625 716.468125 203.3653125 718.09375 202.265625 C729.94551443 194.69148416 743.20977642 189.6506809 756.8125 186.25 C759.33799385 181.60323833 759.33799385 181.60323833 760.8125 173.25 C769.99076079 174.77971013 772.6046612 180.95902568 777.8125 188.25 C784.17033719 191.53607315 789.90952718 194.27772205 796.8125 196.25 C796.8125 196.91 796.8125 197.57 796.8125 198.25 C798.1325 198.91 799.4525 199.57 800.8125 200.25 C811.59884458 206.950608 825.9635467 216.30732687 827.8125 229.25 C829.1325 231.56 830.4525 233.87 831.8125 236.25 C834.34493112 246.05505381 836.69358689 255.17978205 837.8125 265.25 C840.16857158 269.96214317 834.69450193 238.01400385 830.8125 230.25 C830.8125 227.25 830.8125 227.25 834.8125 226.25 C835.1425 225.59 835.4725 224.93 835.8125 224.25 C837.33875 223.816875 838.865 223.38375 840.4375 222.9375 C851.2589989 219.54005267 858.04442991 213.27409345 864.8125 204.25 C865.4725 204.25 866.1325 204.25 866.8125 204.25 C868.67878074 197.71801741 869.19828006 192.55052831 869.4375 185.8125 C869.51226563 183.83378906 869.58703125 181.85507813 869.6640625 179.81640625 C870.58479945 174.91684264 870.58479945 174.91684264 867.8125 175.25 C867.4825 172.94 867.1525 170.63 866.8125 168.25 C865.8225 165.61 864.8325 162.97 863.8125 160.25 C862.8225 157.61 861.8325 154.97 860.8125 152.25 C859.9875 150.6 859.1625 148.95 858.3125 147.25 C849.47096091 129.56692181 841.57365381 107.56951292 848.6875 88.125 C850.11278901 84.18449508 851.48739518 80.22531445 852.8125 76.25 C856.8125 69.25 856.8125 69.25 858.8125 69.25 C859.4725 67.6 860.1325 65.95 860.8125 64.25 C861.4725 64.25 862.1325 64.25 862.8125 64.25 C862.8125 63.59 862.8125 62.93 862.8125 62.25 C870.8933814 62.25 869.45888568 74.25 862.8125 74.25 C862.8125 95.02069667 863.06595393 105.14757011 872.8125 122.25 C872.8125 122.91 872.8125 123.57 872.8125 124.25 C873.4725 124.25 874.1325 124.25 874.8125 124.25 C875.4725 125.9 876.1325 127.55 876.8125 129.25 C877.4725 129.25 878.1325 129.25 878.8125 129.25 C879.4725 130.508125 880.1325 131.76625 880.8125 133.0625 C883.7782186 138.40561302 883.7782186 138.40561302 887.75 143.625 C902.8125 164.48076923 902.8125 164.48076923 902.8125 173.25 C903.4725 173.25 904.1325 173.25 904.8125 173.25 C906.64961314 182.43556568 907.92749013 190.66676681 907.875 200.0625 C907.86597656 202.15207031 907.85695313 204.24164063 907.84765625 206.39453125 C907.80795279 211.8780209 905.21898018 233.25 898.8125 233.25 C898.1525 234.9 897.4925 236.55 896.8125 238.25 C889.70033616 247.73288513 883.35069751 254.29506431 873.8125 261.25 C872.1625 262.57 870.5125 263.89 868.8125 265.25 C865.1309375 266.796875 865.1309375 266.796875 861.375 268.375 C837.5291092 279.16657102 838.92207617 293.61630572 836.6875 317.875 C835.8125 327.25 835.8125 327.25 834.8125 332.25 C834.53841972 335.75528582 834.30466878 339.26378481 834.09375 342.7734375 C833.96613281 344.84625 833.83851563 346.9190625 833.70703125 349.0546875 C833.57683594 351.22289062 833.44664062 353.39109375 833.3125 355.625 C833.05464862 359.9038012 832.79433681 364.18245502 832.53125 368.4609375 C832.41716797 370.36149902 832.30308594 372.26206055 832.18554688 374.22021484 C831.88702927 378.24512304 831.38327139 382.2546003 830.8125 386.25 C834.1125 386.58 837.4125 386.91 840.8125 387.25 C871.94721814 400.87143918 872.73076108 425.49521676 862.8125 455.25 C862.8125 468.13601914 867.07542933 477.77585866 872.8125 489.25 C873.4725 490.9 874.1325 492.55 874.8125 494.25 C877.14192391 497.88378957 879.52301157 501.48466714 881.9375 505.0625 C883.21882813 506.96644531 884.50015625 508.87039063 885.8203125 510.83203125 C892.3299036 520.443451 902.30380751 524.30924031 912.8125 528.25 C916.8125 531.25 916.8125 531.25 918.8125 538.25 C925.10476862 545.93797867 925.10476862 545.93797867 931.8125 553.25 C931.8125 567.53959504 918.86818874 562.01392219 907.8125 559.25 C908.286875 561.395 908.76125 563.54 909.25 565.75 C910.8125 573.25 910.8125 573.25 911.8125 581.25 C916.27798888 589.71903064 920.7939094 598.09479027 925.8125 606.25 C924.8125 611.25 924.8125 611.25 921.8125 612.25 C921.8125 612.91 921.8125 613.57 921.8125 614.25 C920.1625 614.91 918.5125 615.57 916.8125 616.25 C913.60660266 619.45589734 905.32952031 630.15248308 908.8125 627.25 C909.4725 627.25 910.1325 627.25 910.8125 627.25 C910.8125 626.59 910.8125 625.93 910.8125 625.25 C911.4725 625.25 912.1325 625.25 912.8125 625.25 C912.8125 624.59 912.8125 623.93 912.8125 623.25 C922.8125 617.25 922.8125 617.25 924.8125 617.25 C924.8125 616.59 924.8125 615.93 924.8125 615.25 C947.12323169 604.09463416 960.8125 624.95638635 960.8125 643.25 C961.8025 643.91 962.7925 644.57 963.8125 645.25 C963.8125 645.91 963.8125 646.57 963.8125 647.25 C973.87853437 652.60799 973.87853437 652.60799 984.8125 650.25 C998.8125 650.25 998.8125 650.25 1006.8125 657.25 C1007.8025 657.58 1008.7925 657.91 1009.8125 658.25 C1009.8125 658.91 1009.8125 659.57 1009.8125 660.25 C1011.4625 660.25 1013.1125 660.25 1014.8125 660.25 C1035.51368685 674.05079124 1040.16821667 698.89428333 1021.8125 717.25 C1020.10539322 720.72140452 1020.10539322 720.72140452 1024.8125 722.25 C1028.16909601 724.88732544 1031.50479534 727.55160935 1034.8125 730.25 C1041.91244915 728.91991213 1041.91244915 728.91991213 1045.8125 723.25 C1050.7625 718.3 1050.7625 718.3 1055.8125 713.25 C1056.1425 712.59 1056.4725 711.93 1056.8125 711.25 C1057.4725 711.25 1058.1325 711.25 1058.8125 711.25 C1059.14583333 706.75 1059.14583333 706.75 1043.8125 709.25 C1039.05733884 706.87241942 1043.56928683 703.33107106 1046.8125 702.25 C1046.8125 701.59 1046.8125 700.93 1046.8125 700.25 C1055.86594349 693.50912088 1064.92159607 686.7949021 1074.25 680.4375 C1084.28746708 673.55229531 1093.83599897 666.47845927 1102.8125 658.25 C1103.4725 658.25 1104.1325 658.25 1104.8125 658.25 C1104.8125 657.59 1104.8125 656.93 1104.8125 656.25 C1107.7825 653.775 1107.7825 653.775 1110.8125 651.25 C1112.74111036 647.39277928 1091.66470705 653.28694824 1087.8125 654.25 C1084.03472222 654.25 1081.59027778 652.25 1085.8125 652.25 C1086.4725 650.93 1087.1325 649.61 1087.8125 648.25 C1088.4725 648.25 1089.1325 648.25 1089.8125 648.25 C1089.8125 647.59 1089.8125 646.93 1089.8125 646.25 C1111.13903061 627.25 1111.13903061 627.25 1117.8125 627.25 C1117.8125 626.59 1117.8125 625.93 1117.8125 625.25 C1119.17375 624.734375 1120.535 624.21875 1121.9375 623.6875 C1128.74390069 620.8635678 1135.23357129 617.56806839 1141.8125 614.25 C1149.3971988 610.66833668 1156.9925377 607.28461224 1164.8125 604.25 C1166.1325 603.26 1167.4525 602.27 1168.8125 601.25 C1171.1225 600.26 1173.4325 599.27 1175.8125 598.25 C1178.1225 596.93 1180.4325 595.61 1182.8125 594.25 C1183.8025 594.25 1184.7925 594.25 1185.8125 594.25 C1185.8125 588.73890142 1180.10733281 592.02915094 1175.8125 592.625 C1173.028125 593.00785156 1173.028125 593.00785156 1170.1875 593.3984375 C1164.3349873 594.24507788 1164.3349873 594.24507788 1156.8125 596.25 C1145.97669181 596.25 1145.36208489 595.42423418 1153.375 590.375 C1157.94327803 587.44775388 1162.45965218 584.43879061 1166.9375 581.375 C1180.07156304 572.82743516 1192.7013254 566.46131095 1207.8125 562.25 C1209.51535156 561.73179687 1211.21820312 561.21359375 1212.97265625 560.6796875 C1221.44012275 558.60671577 1229.85493128 558.36373994 1238.53515625 557.875 C1244.38851328 557.29221399 1249.2305178 556.0112828 1254.8125 554.25 C1257.7825 553.92 1260.7525 553.59 1263.8125 553.25 C1263.8125 547.61701952 1244.7506583 546.18424617 1239.8125 545.25 C1235.93513259 543.31131629 1288.08780336 532.1973754 1297.76953125 530.94140625 C1301.10830448 530.48365035 1304.44007758 529.97124362 1307.76171875 529.40234375 C1321.80218597 527.00844966 1337.87295529 524.79144909 1351.76953125 528.61328125 C1366.41246263 534.81537406 1366.41246263 534.81537406 1375.0625 528.75 C1378.96634615 514.25 1378.96634615 514.25 1382.8125 514.25 C1383.1425 512.6 1383.4725 510.95 1383.8125 509.25 C1388.99792943 502.0390122 1393.94326986 495.87027921 1400.8125 490.25 C1402.524375 488.64125 1404.23625 487.0325 1406 485.375 C1410.03751821 481.81503771 1440.32897842 460.21704315 1429.8125 481.25 C1429.1525 481.25 1428.4925 481.25 1427.8125 481.25 C1425.92166716 493.10864846 1425.57177179 504.70963008 1425.6875 516.6875 C1425.70103516 519.37616211 1425.70103516 519.37616211 1425.71484375 522.11914062 C1423.78506359 533.22090139 1423.78506359 533.22090139 1432.8125 535.25 C1440.90228533 538.14529159 1447.85642778 541.18032025 1454.8125 546.25 C1461.69464887 545.83925565 1461.69464887 545.83925565 1465.8125 542.25 C1466.4725 542.25 1467.1325 542.25 1467.8125 542.25 C1467.8125 541.59 1467.8125 540.93 1467.8125 540.25 C1469.33875 539.1775 1470.865 538.105 1472.4375 537 C1486.47977546 526.53712809 1498.47976566 515.39789779 1508.8125 501.25 C1524.2792138 498.67221437 1508.89182715 550.07151392 1504.8125 559.25 C1504.1525 559.25 1503.4925 559.25 1502.8125 559.25 C1502.1525 560.9 1501.4925 562.55 1500.8125 564.25 C1496.42099362 570.45868143 1492.21036914 575.85213086 1486.8125 581.25 C1488.26219913 587.04879652 1491.76141479 591.1781023 1495.1875 596 C1498.62564465 600.9793819 1501.70018526 606.06280877 1504.8125 611.25 C1506.4625 613.704375 1508.1125 616.15875 1509.8125 618.6875 C1513.74302634 624.63242109 1530.7273988 651.90928364 1513.3125 636.1875 C1495.70395488 619.74832792 1495.70395488 619.74832792 1496.8125 628.25 C1497.6478125 631.158125 1497.6478125 631.158125 1498.5 634.125 C1504.21014653 651.71842445 1515.51265318 665.83860116 1526.8125 680.25 C1526.8125 691.81950733 1521.1722751 700.71033734 1514.8125 710.25 C1509.59281859 720.68936283 1508.64291949 746.91083897 1513.8125 757.25 C1514.00585938 758.68472656 1514.19921875 760.11945312 1514.3984375 761.59765625 C1514.65882812 763.48355469 1514.91921875 765.36945312 1515.1875 767.3125 C1515.44273438 769.18035156 1515.69796875 771.04820312 1515.9609375 772.97265625 C1516.76103003 778.59120227 1516.76103003 778.59120227 1518.8125 785.25 C1519.47916667 790.91666667 1520.14583333 796.58333333 1520.8125 802.25 C1521.4725 804.56 1522.1325 806.87 1522.8125 809.25 C1523.83122268 813.91261535 1524.83377752 818.57882455 1525.8125 823.25 C1527.7925 825.89 1529.7725 828.53 1531.8125 831.25 C1533.91449546 838.60698413 1534.29816829 843.27866343 1530.8125 850.25 C1532.03801978 861.27967805 1534.25034983 871.55378337 1540.625 880.75 C1552.97623616 899.92206807 1544.98767746 911.5717703 1532.75 927.9375 C1523.46205042 940.37571028 1523.46205042 940.37571028 1516.5 954.1875 C1512.47092605 964.08946141 1509.46724878 967.6663107 1498.4765625 968.80078125 C1496.15367188 969.05214844 1493.83078125 969.30351563 1491.4375 969.5625 C1487.99183594 969.92794922 1487.99183594 969.92794922 1484.4765625 970.30078125 C1478.62510412 971.13425393 1473.40086324 972.37142592 1467.8125 974.25 C1455.13215243 974.25 1450.6692646 969.1067646 1441.8125 960.25 C1439.14813616 958.50259068 1439.14813616 958.50259068 1437.8125 964.25 C1437.1525 964.25 1436.4925 964.25 1435.8125 964.25 C1435.1525 965.57 1434.4925 966.89 1433.8125 968.25 C1433.1525 968.25 1432.4925 968.25 1431.8125 968.25 C1431.8125 968.91 1431.8125 969.57 1431.8125 970.25 C1419.19394272 974.45618576 1414.51378851 969.83540832 1403.8125 963.25 C1396.44603687 959.88409196 1396.44603687 959.88409196 1395.8125 965.25 C1394.245 967.580625 1392.6775 969.91125 1391.0625 972.3125 C1387.83165033 977.197237 1384.71815688 982.16510047 1381.8125 987.25 C1380.4925 987.58 1379.1725 987.91 1377.8125 988.25 C1377.1525 989.57 1376.4925 990.89 1375.8125 992.25 C1368.29961132 1000.06340423 1360.49156528 1006.76354068 1351.8125 1013.25 C1351.1525 1013.91 1350.4925 1014.57 1349.8125 1015.25 C1345.3575 1016.24 1345.3575 1016.24 1340.8125 1017.25 C1340.8125 1017.91 1340.8125 1018.57 1340.8125 1019.25 C1336.8525 1020.57 1332.8925 1021.89 1328.8125 1023.25 C1328.4825 1023.58 1328.1525 1023.91 1327.8125 1024.25 C1288.8125 1024.55681818 1288.8125 1024.55681818 1288.8125 1021.25 C1286.1725 1020.92 1283.5325 1020.59 1280.8125 1020.25 C1278.688125 1019.755 1276.56375 1019.26 1274.375 1018.75 C1251.85184351 1013.60184995 1254.86667159 1028.13747681 1250.8125 1047.25 C1251.4725 1047.25 1252.1325 1047.25 1252.8125 1047.25 C1253.4725 1049.56 1254.1325 1051.87 1254.8125 1054.25 C1255.4725 1054.25 1256.1325 1054.25 1256.8125 1054.25 C1263.38069024 1068.28204279 1268.64239888 1080.64865169 1269.8125 1096.25 C1271.4625 1097.9 1273.1125 1099.55 1274.8125 1101.25 C1279.8125 1109.25 1279.8125 1109.25 1280.8125 1113.25 C1281.4725 1113.25 1282.1325 1113.25 1282.8125 1113.25 C1282.8125 1129.14699555 1278.26996827 1134.61171526 1269.8125 1147.25 C1262.12769005 1190.09402104 1262.12769005 1190.09402104 1267.8125 1231.25 C1267.8125 1239.23112465 1263.03457821 1260.21041712 1258.8125 1253.4375 C1246.7756365 1230.19004508 1246.7756365 1230.19004508 1235.8125 1236.25 C1232.8125 1242.25 1232.8125 1242.25 1230.8125 1242.25 C1230.4825 1243.57 1230.1525 1244.89 1229.8125 1246.25 C1226.76538015 1251.99797609 1223.88604182 1257.15807273 1219.8125 1262.25 C1218.08 1264.498125 1216.3475 1266.74625 1214.5625 1269.0625 C1210.18396084 1274.53567395 1205.89302477 1279.4570521 1200.8125 1284.25 C1199.03932671 1287.90572925 1199.03932671 1287.90572925 1204.8125 1289.25 C1215.74703078 1297.63066078 1226.42716924 1306.18828982 1236.8125 1315.25 C1238.17375 1316.425625 1239.535 1317.60125 1240.9375 1318.8125 C1244.11505961 1321.63130288 1247.25112179 1324.49682008 1250.375 1327.375 C1273.40031805 1348.38839706 1296.4650597 1367.05707806 1324.75 1380.5625 C1348.78669538 1393.11263298 1349.75553869 1410.03847245 1350.43359375 1435.09765625 C1350.64781862 1441.62510962 1350.64781862 1441.62510962 1352.8125 1449.25 C1352.8125 1469.63900254 1345.2808836 1479.66452049 1332.8125 1495.25 C1327.43814347 1502.58642319 1323.20813143 1509.76092144 1319.8125 1518.25 C1319.1525 1518.25 1318.4925 1518.25 1317.8125 1518.25 C1316.8225 1521.22 1315.8325 1524.19 1314.8125 1527.25 C1312.82600238 1531.76768008 1310.83755232 1536.28462637 1308.8125 1540.78515625 C1305.49963091 1548.18087768 1302.37537101 1555.56138696 1299.8125 1563.25 C1299.1525 1563.25 1298.4925 1563.25 1297.8125 1563.25 C1297.8125 1565.23 1297.8125 1567.21 1297.8125 1569.25 C1296.3275 1572.715 1296.3275 1572.715 1294.8125 1576.25 C1294.4825 1577.9 1294.1525 1579.55 1293.8125 1581.25 C1293.1525 1581.25 1292.4925 1581.25 1291.8125 1581.25 C1291.8125 1583.89 1291.8125 1586.53 1291.8125 1589.25 C1290.4925 1592.22 1289.1725 1595.19 1287.8125 1598.25 C1286.11901728 1603.90871056 1284.45183839 1609.5753671 1282.8125 1615.25 C1281.8225 1617.89 1280.8325 1620.53 1279.8125 1623.25 C1279.21187407 1626.779011 1278.6946398 1630.32296318 1278.25 1633.875 C1277.5107318 1639.73067238 1276.68657976 1644.62776071 1274.8125 1650.25 C1274.3175 1652.065 1273.8225 1653.88 1273.3125 1655.75 C1270.17613636 1667.25 1270.17613636 1667.25 1267.8125 1667.25 C1267.1525 1668.9 1266.4925 1670.55 1265.8125 1672.25 C1258.8125 1681.25 1258.8125 1681.25 1251.8125 1685.25 C1251.1525 1685.91 1250.4925 1686.57 1249.8125 1687.25 C1247.2446875 1688.1471875 1247.2446875 1688.1471875 1244.625 1689.0625 C1238.79053081 1691.0597562 1238.79053081 1691.0597562 1233.8125 1694.25 C1233.1525 1694.25 1232.4925 1694.25 1231.8125 1694.25 C1231.8125 1694.91 1231.8125 1695.57 1231.8125 1696.25 C1229.8325 1696.91 1227.8525 1697.57 1225.8125 1698.25 C1225.8125 1698.91 1225.8125 1699.57 1225.8125 1700.25 C1221.8125 1703.25 1221.8125 1703.25 1219.8125 1703.25 C1219.8125 1703.91 1219.8125 1704.57 1219.8125 1705.25 C1218.1625 1706.9 1216.5125 1708.55 1214.8125 1710.25 C1205.44591226 1720.9844537 1205.44591226 1720.9844537 1198.8125 1733.25 C1197.1625 1734.24 1195.5125 1735.23 1193.8125 1736.25 C1192.4925 1737.57 1191.1725 1738.89 1189.8125 1740.25 C1177.10661765 1748.25 1177.10661765 1748.25 1174.8125 1748.25 C1174.8125 1748.91 1174.8125 1749.57 1174.8125 1750.25 C1173.1625 1750.58 1171.5125 1750.91 1169.8125 1751.25 C1169.8125 1751.91 1169.8125 1752.57 1169.8125 1753.25 C1168.4925 1753.25 1167.1725 1753.25 1165.8125 1753.25 C1165.8125 1753.91 1165.8125 1754.57 1165.8125 1755.25 C1158.8125 1758.25 1158.8125 1758.25 1155.8125 1758.25 C1155.4825 1759.24 1155.1525 1760.23 1154.8125 1761.25 C1143.8125 1766.25 1143.8125 1766.25 1140.8125 1766.25 C1140.8125 1766.91 1140.8125 1767.57 1140.8125 1768.25 C1108.9553072 1784.39679635 1102.62111797 1774.1576193 1102.75 1739.875 C1102.76353516 1735.22277344 1102.76353516 1735.22277344 1102.77734375 1730.4765625 C1102.8125 1723.25 1102.8125 1723.25 1104.8125 1723.25 C1104.93625 1720.56875 1105.06 1717.8875 1105.1875 1715.125 C1106.69857595 1691.25 1106.69857595 1691.25 1109.8125 1691.25 C1110.1425 1688.61 1110.4725 1685.97 1110.8125 1683.25 C1112.8125 1677.25 1112.8125 1677.25 1114.8125 1677.25 C1115.1425 1674.61 1115.4725 1671.97 1115.8125 1669.25 C1123.69884938 1655.44888859 1144.92798144 1651.2181569 1159.5625 1657.1875 C1185.03200923 1667.19337863 1186.90460753 1654.89475269 1183.8125 1633.25 C1183.8125 1619.78388243 1191.92261677 1615.33275247 1202.5625 1608.625 C1217.77104336 1598.84807927 1228.8851446 1580.08368933 1234.8125 1563.25 C1237.38622673 1557.45911485 1240.08621004 1551.72187856 1242.9375 1546.0625 C1246.82125852 1538.6845502 1246.82125852 1538.6845502 1248.8125 1532.25 C1250.80518793 1527.24708137 1252.80543986 1522.24717016 1254.8125 1517.25 C1255.8025 1514.61 1256.7925 1511.97 1257.8125 1509.25 C1258.4725 1509.25 1259.1325 1509.25 1259.8125 1509.25 C1259.8125 1507.6 1259.8125 1505.95 1259.8125 1504.25 C1260.8025 1501.61 1261.7925 1498.97 1262.8125 1496.25 C1263.52991839 1492.92722008 1264.20849554 1489.59525547 1264.8125 1486.25 C1265.1425 1485.59 1265.4725 1484.93 1265.8125 1484.25 C1266.80287514 1469.82841037 1266.80287514 1469.82841037 1263.8125 1463.25 C1262.8225 1460.28 1261.8325 1457.31 1260.8125 1454.25 C1253.8206231 1437.66142931 1245.28007841 1430.10210511 1227.8125 1425.25 C1227.8125 1424.59 1227.8125 1423.93 1227.8125 1423.25 C1225.3065625 1422.8478125 1225.3065625 1422.8478125 1222.75 1422.4375 C1216.8125 1421.25 1216.8125 1421.25 1209.8125 1418.25 C1208.1625 1417.92 1206.5125 1417.59 1204.8125 1417.25 C1204.8125 1416.59 1204.8125 1415.93 1204.8125 1415.25 C1202.5025 1415.25 1200.1925 1415.25 1197.8125 1415.25 C1197.4825 1414.26 1197.1525 1413.27 1196.8125 1412.25 C1194.5025 1412.25 1192.1925 1412.25 1189.8125 1412.25 C1172.8125 1407.25 1172.8125 1407.25 1172.8125 1405.25 C1171.1625 1405.0025 1169.5125 1404.755 1167.8125 1404.5 C1156.52710167 1402.4847503 1146.30724413 1399.91433073 1135.8125 1395.25 C1129.81888268 1393.56052398 1123.81926016 1391.89213587 1117.8125 1390.25 C1116.4925 1389.59 1115.1725 1388.93 1113.8125 1388.25 C1111.8325 1387.92 1109.8525 1387.59 1107.8125 1387.25 C1107.8125 1386.59 1107.8125 1385.93 1107.8125 1385.25 C1105.5025 1384.92 1103.1925 1384.59 1100.8125 1384.25 C1097.46399345 1382.95524413 1094.13219597 1381.61693363 1090.8125 1380.25 C1079.91439689 1374.49853861 1079.91439689 1374.49853861 1077.8125 1385.25 C1076.8225 1387.89 1075.8325 1390.53 1074.8125 1393.25 C1074.09508161 1396.57277992 1073.41650446 1399.90474453 1072.8125 1403.25 C1072.1525 1403.25 1071.4925 1403.25 1070.8125 1403.25 C1070.8125 1404.9 1070.8125 1406.55 1070.8125 1408.25 C1069.3275 1411.715 1069.3275 1411.715 1067.8125 1415.25 C1065.35345129 1423.54928941 1063.07085538 1431.89408511 1060.8125 1440.25 C1060.1525 1440.25 1059.4925 1440.25 1058.8125 1440.25 C1058.4825 1441.9 1058.1525 1443.55 1057.8125 1445.25 C1056.8125 1449.25 1056.8125 1449.25 1054.8125 1450.25 C1052.52029612 1455.98050969 1050.93513108 1461.80035269 1049.3125 1467.75 C1046.0125 1479.85 1046.0125 1479.85 1043.8125 1484.25 C1043.565 1485.94125 1043.3175 1487.6325 1043.0625 1489.375 C1041.76442261 1496.51442564 1039.82153283 1503.28116737 1037.8125 1510.25 C1037.09541364 1513.90714042 1036.40904999 1517.57127508 1035.8125 1521.25 C1035.1525 1521.25 1034.4925 1521.25 1033.8125 1521.25 C1033.80633667 1523.73623901 1033.80633667 1523.73623901 1033.80004883 1526.27270508 C1033.76691374 1533.86965205 1033.69623601 1541.46581855 1033.625 1549.0625 C1033.61919922 1551.66962891 1033.61339844 1554.27675781 1033.60742188 1556.96289062 C1033.44065402 1571.65699156 1032.29103095 1584.24354736 1027.8125 1598.25 C1027.1525 1600.56 1026.4925 1602.87 1025.8125 1605.25 C1023.87104931 1608.94800131 1021.86015191 1612.60972994 1019.8125 1616.25 C1014.4245023 1626.0669825 1014.4245023 1626.0669825 1009.8125 1636.25 C1009.1525 1636.25 1008.4925 1636.25 1007.8125 1636.25 C1007.4825 1638.89 1007.1525 1641.53 1006.8125 1644.25 C1005.8225 1646.89 1004.8325 1649.53 1003.8125 1652.25 C1003.709375 1654.291875 1003.60625 1656.33375 1003.5 1658.4375 C1002.86923732 1666.52273076 1001.77809137 1674.44100137 1000.57421875 1682.45703125 C999.45225429 1690.98971482 998.84727608 1699.54620238 998.2421875 1708.12890625 C997.8125 1713.25 997.8125 1713.25 996.8125 1717.25 C994.24716345 1747.44164103 994.24716345 1747.44164103 997.8125 1777.25 C998.47916667 1780.58333333 999.14583333 1783.91666667 999.8125 1787.25 C1000.1425 1787.58 1000.4725 1787.91 1000.8125 1788.25 C1001.4725 1795.84 1002.1325 1803.43 1002.8125 1811.25 C1009.43070023 1827.79550057 1021.22221328 1840.02864248 1037.8125 1846.25 C1047.36667634 1855.80417634 1052.54918461 1864.19673843 1055.8125 1877.25 C1056.8025 1878.57 1057.7925 1879.89 1058.8125 1881.25 C1059.4725 1882.9 1060.1325 1884.55 1060.8125 1886.25 C1062.80612287 1889.58715132 1064.80660344 1892.92021171 1066.8125 1896.25 C1070.8125 1904.25 1070.8125 1904.25 1070.8125 1906.25 C1071.4725 1906.25 1072.1325 1906.25 1072.8125 1906.25 C1079.0625 1920 1079.0625 1920 1072.8125 1921.25 C1072.8125 1921.91 1072.8125 1922.57 1072.8125 1923.25 C1056.29581425 1926.19483544 1041.10200884 1927.43271675 1024.375 1927.4375 C1022.15587891 1927.44974609 1019.93675781 1927.46199219 1017.65039062 1927.47460938 C1000.95757166 1927.48946504 985.20150616 1925.86865747 968.8125 1922.625 C966.54375 1922.17898438 964.275 1921.73296875 961.9375 1921.2734375 C945.65723736 1918.02234847 935.68422391 1883.33551739 950.8125 1873.25 C961.04317313 1852.78865374 954.13750071 1838.84166675 930.8125 1836.25 C916.93118404 1819.9753537 907.17230486 1798.71029272 920.8125 1778.25 C921.1425 1776.6 921.4725 1774.95 921.8125 1773.25 C922.4725 1773.25 923.1325 1773.25 923.8125 1773.25 C923.8125 1770.28 923.8125 1767.31 923.8125 1764.25 C925.47916667 1759.25 927.14583333 1754.25 928.8125 1749.25 C930.58302372 1741.53051659 931.93645806 1734.13437744 932.8125 1726.25 C933.1425 1725.92 933.4725 1725.59 933.8125 1725.25 C934.4725 1719.97 935.1325 1714.69 935.8125 1709.25 C936.4725 1707.6 937.1325 1705.95 937.8125 1704.25 C938.1425 1699.96 938.4725 1695.67 938.8125 1691.25 C939.4725 1691.25 940.1325 1691.25 940.8125 1691.25 C940.93625 1688.754375 941.06 1686.25875 941.1875 1683.6875 C941.8125 1674.25 941.8125 1674.25 942.8359375 1667.23828125 C943.87373855 1658.74906869 944.07779563 1650.55025441 944.0625 1642 C944.07023437 1637.66101562 944.07023437 1637.66101562 944.078125 1633.234375 C943.73601675 1622.95100352 941.89675286 1614.01680074 938.8125 1604.25 C936.14789762 1594.92389167 935.69767293 1586.37818146 935.75 1576.75 C935.75902344 1574.5946875 935.76804687 1572.439375 935.77734375 1570.21875 C935.8109454 1565.46971644 937.02012329 1548.25 942.8125 1548.25 C943.1425 1545.61 943.4725 1542.97 943.8125 1540.25 C944.1425 1539.92 944.4725 1539.59 944.8125 1539.25 C947.86040121 1525.63604128 947.97148464 1512.09729061 948 1498.1875 C948.02126953 1493.56041016 948.02126953 1493.56041016 948.04296875 1488.83984375 C947.95165902 1479.41685156 947.41346983 1470.04980472 946.83984375 1460.64453125 C945.62053826 1439.7643996 945.36571877 1418.91100193 945.1875 1398 C945.14918071 1394.21353407 945.11012179 1390.42707556 945.0703125 1386.640625 C944.97589022 1377.51048578 944.89133094 1368.38028876 944.8125 1359.25 C938.18893152 1352.62643152 934.66480544 1353.11592991 925.6328125 1352.96875 C922.56613281 1352.91267578 922.56613281 1352.91267578 919.4375 1352.85546875 C917.2925 1352.82066406 915.1475 1352.78585937 912.9375 1352.75 C887.45372206 1352.32890942 887.45372206 1352.32890942 874.8125 1351.25 C874.5143576 1353.84628479 874.5143576 1353.84628479 878.8125 1355.25 C880.648125 1356.219375 882.48375 1357.18875 884.375 1358.1875 C890.23674165 1360.97609554 895.55410559 1362.64901538 901.8125 1364.25 C914.71494534 1369.21247898 925.44343704 1387.25 903.8125 1387.25 C903.8125 1387.91 903.8125 1388.57 903.8125 1389.25 C901.5025 1389.70375 899.1925 1390.1575 896.8125 1390.625 C891.4534374 1391.71355959 886.11772618 1392.92369345 880.8125 1394.25 C836.73442284 1394.61834048 836.73442284 1394.61834048 816.8125 1392.25 C813.8425 1391.92 810.8725 1391.59 807.8125 1391.25 C807.8125 1390.59 807.8125 1389.93 807.8125 1389.25 C796.65162328 1386.45893306 796.65162328 1386.45893306 797.8125 1395.25 C793.37289138 1399.68960862 774.46980785 1395.68615035 768.5 1395.25 C765.92574219 1395.064375 763.35148437 1394.87875 760.69921875 1394.6875 C746.89657801 1393.66168994 730.57178426 1375.49071574 744.8125 1361.25 C744.8125 1343.77998918 733.48468499 1346.93182912 718.25 1345.375 C710.19804124 1344.41516386 655.8125 1337.76524659 655.8125 1329.25 C653.1725 1329.25 650.5325 1329.25 647.8125 1329.25 C640.8125 1327.25 640.8125 1327.25 640.8125 1325.25 C638.8325 1325.25 636.8525 1325.25 634.8125 1325.25 C632.5025 1324.59 630.1925 1323.93 627.8125 1323.25 C627.1525 1326.88 626.4925 1330.51 625.8125 1334.25 C624.8225 1335.57 623.8325 1336.89 622.8125 1338.25 C621.8225 1341.22 620.8325 1344.19 619.8125 1347.25 C619.1525 1347.25 618.4925 1347.25 617.8125 1347.25 C617.1525 1349.56 616.4925 1351.87 615.8125 1354.25 C614.8225 1355.9 613.8325 1357.55 612.8125 1359.25 C612.4825 1360.57 612.1525 1361.89 611.8125 1363.25 C611.1525 1363.25 610.4925 1363.25 609.8125 1363.25 C609.1525 1365.56 608.4925 1367.87 607.8125 1370.25 C607.1525 1370.25 606.4925 1370.25 605.8125 1370.25 C605.4825 1371.57 605.1525 1372.89 604.8125 1374.25 C602.8125 1379.25 602.8125 1379.25 599.8125 1382.25 C599.1525 1383.9 598.4925 1385.55 597.8125 1387.25 C597.1525 1387.25 596.4925 1387.25 595.8125 1387.25 C595.1525 1388.57 594.4925 1389.89 593.8125 1391.25 C550.55826271 1449.25 550.55826271 1449.25 538.8125 1449.25 C538.4825 1450.24 538.1525 1451.23 537.8125 1452.25 C536.719375 1453.19875 535.62625 1454.1475 534.5 1455.125 C531.0554995 1458.15616044 527.64334294 1461.22417665 524.25 1464.3125 C512.20490506 1475.25 512.20490506 1475.25 509.8125 1475.25 C509.8125 1475.91 509.8125 1476.57 509.8125 1477.25 C505.54179057 1481.01401509 501.2590009 1484.69279928 496.8125 1488.25 C496.4825 1488.91 496.1525 1489.57 495.8125 1490.25 C495.1525 1490.25 494.4925 1490.25 493.8125 1490.25 C493.8125 1490.91 493.8125 1491.57 493.8125 1492.25 C493.1525 1492.25 492.4925 1492.25 491.8125 1492.25 C491.1525 1493.57 490.4925 1494.89 489.8125 1496.25 C487.8125 1499.25 487.8125 1499.25 485.8125 1499.25 C485.4825 1500.9 485.1525 1502.55 484.8125 1504.25 C483.8125 1507.25 483.8125 1507.25 480.8125 1507.25 C480.8125 1508.57 480.8125 1509.89 480.8125 1511.25 C480.1525 1511.25 479.4925 1511.25 478.8125 1511.25 C474.47619142 1529.91666667 474.47619142 1529.91666667 479.8125 1539.25 C480.1425 1542.55 480.4725 1545.85 480.8125 1549.25 C481.8025 1549.58 482.7925 1549.91 483.8125 1550.25 C489.8125 1561.25 489.8125 1561.25 490.8125 1565.25 C491.4725 1565.25 492.1325 1565.25 492.8125 1565.25 C494.17375 1567.333125 495.535 1569.41625 496.9375 1571.5625 C503.24771847 1581.02782771 510.00533697 1590.1385254 516.8125 1599.25 C517.86050781 1600.66023438 518.90851562 1602.07046875 519.98828125 1603.5234375 C542.75441211 1634.31859704 542.75441211 1634.31859704 569.8125 1661.25 C571.4625 1662.9 573.1125 1664.55 574.8125 1666.25 C581.00404792 1672.04788698 581.00404792 1672.04788698 585.8125 1674.25 C598.24979883 1688.42852066 602.64353191 1696.25855241 603.8125 1715.0625 C604.70569448 1730.95858941 604.70569448 1730.95858941 608.8125 1746.25 C609.410625 1747.85875 610.00875 1749.4675 610.625 1751.125 C612.92124259 1756.50476836 615.70295608 1761.30299831 618.8125 1766.25 C618.8125 1767.57 618.8125 1768.89 618.8125 1770.25 C619.4725 1770.25 620.1325 1770.25 620.8125 1770.25 C626.8125 1780.25 626.8125 1780.25 626.8125 1792.25 C627.4725 1792.25 628.1325 1792.25 628.8125 1792.25 C629.1425 1797.86 629.4725 1803.47 629.8125 1809.25 C630.1425 1809.91 630.4725 1810.57 630.8125 1811.25 C630.87308594 1812.86648438 630.93367187 1814.48296875 630.99609375 1816.1484375 C631.07988281 1818.28570313 631.16367187 1820.42296875 631.25 1822.625 C631.33121094 1824.73648437 631.41242187 1826.84796875 631.49609375 1829.0234375 C631.69076806 1832.8544357 631.95756143 1836.68354828 632.34375 1840.5 C636.31618097 1880.75396719 593.12349333 1858.56268794 569.8125 1847.25 C569.8125 1846.59 569.8125 1845.93 569.8125 1845.25 C568.1625 1844.92 566.5125 1844.59 564.8125 1844.25 C551.8125 1837.83441558 551.8125 1837.83441558 551.8125 1835.25 C550.1625 1834.92 548.5125 1834.59 546.8125 1834.25 C541.8125 1831.25 541.8125 1831.25 541.8125 1829.25 C540.1625 1828.59 538.5125 1827.93 536.8125 1827.25 C525.08585934 1818.8738281 505.5675172 1772.25 532.8125 1772.25 C532.8125 1771.59 532.8125 1770.93 532.8125 1770.25 C536.7725 1766.785 536.7725 1766.785 540.8125 1763.25 C541.1425 1762.59 541.4725 1761.93 541.8125 1761.25 C542.4725 1761.25 543.1325 1761.25 543.8125 1761.25 C544.13780242 1750.36945949 544.13780242 1750.36945949 537.8125 1744.25 C536.8225 1743.92 535.8325 1743.59 534.8125 1743.25 C531.14858853 1742.88763513 527.4818652 1742.55218302 523.8125 1742.25 C508.49095392 1732.6740337 507.7247933 1722.12742613 506.8125 1705.25 C505.719375 1703.084375 504.62625 1700.91875 503.5 1698.6875 C501.14409445 1693.93575829 498.90173374 1689.12487873 496.8125 1684.25 C481.54289756 1660.74284888 464.62836845 1638.53639731 446.625 1617.0625 C442.89609828 1612.55876155 439.32074921 1607.92766561 435.8125 1603.25 C434.1625 1601.6 432.5125 1599.95 430.8125 1598.25 C428.770625 1595.7440625 428.770625 1595.7440625 426.6875 1593.1875 C421.6035018 1586.99545091 416.24847786 1581.13364662 410.8125 1575.25 C408.8325 1572.94 406.8525 1570.63 404.8125 1568.25 C403.1625 1566.6 401.5125 1564.95 399.8125 1563.25 C397.47288279 1560.75587976 395.14020473 1558.25524153 392.8125 1555.75 C387.93020509 1550.51522722 382.98709371 1545.45748392 377.875 1540.4375 C368.99762422 1531.37708555 360.95463707 1522.10282239 358.8125 1509.25 C358.1525 1509.25 357.4925 1509.25 356.8125 1509.25 C356.8125 1485.81986396 360.70150914 1483.07584058 376.8125 1467.25 C380.94429868 1462.67323838 384.8637938 1457.98844744 388.8125 1453.25 C390.4625 1451.6 392.1125 1449.95 393.8125 1448.25 C399.56564499 1441.44196718 399.56564499 1441.44196718 404.8125 1434.25 C405.4725 1434.25 406.1325 1434.25 406.8125 1434.25 C407.4725 1432.6 408.1325 1430.95 408.8125 1429.25 C413.72159091 1420.25 413.72159091 1420.25 415.8125 1420.25 C416.4725 1418.6 417.1325 1416.95 417.8125 1415.25 C421.8125 1405.25 421.8125 1405.25 423.8125 1405.25 C424.1425 1403.27 424.4725 1401.29 424.8125 1399.25 C425.4725 1398.59 426.1325 1397.93 426.8125 1397.25 C429.23700904 1387.85502746 422.93946297 1334.43259258 415.8125 1352.25 C415.1525 1352.25 414.4925 1352.25 413.8125 1352.25 C413.1525 1353.57 412.4925 1354.89 411.8125 1356.25 C404.65232424 1364.53334059 397.13195579 1372.47904653 388.875 1379.6875 C386.10459777 1382.11692965 383.41799966 1384.64450034 380.8125 1387.25 C376.95169185 1391.11080815 372.91999544 1394.65594149 368.8125 1398.25 C362.58084599 1404.18490859 357.23861962 1410.57733939 351.8125 1417.25 C350.141875 1419.085625 348.47125 1420.92125 346.75 1422.8125 C342.21190097 1427.81015336 337.97153327 1432.93567971 333.8125 1438.25 C333.1525 1438.25 332.4925 1438.25 331.8125 1438.25 C331.1525 1439.57 330.4925 1440.89 329.8125 1442.25 C321.16050356 1451.09739912 312.53688586 1459.56653463 302.8125 1467.25 C301.3275 1468.590625 299.8425 1469.93125 298.3125 1471.3125 C293.8125 1475.25 293.8125 1475.25 288.5625 1479.0625 C282.0275538 1483.8216456 275.94463739 1488.98503355 269.8125 1494.25 C263.8125 1499.25 263.8125 1499.25 261.8125 1499.25 C261.1525 1500.57 260.4925 1501.89 259.8125 1503.25 C258.4925 1503.91 257.1725 1504.57 255.8125 1505.25 C255.8125 1505.91 255.8125 1506.57 255.8125 1507.25 C255.1525 1507.25 254.4925 1507.25 253.8125 1507.25 C253.1525 1508.57 252.4925 1509.89 251.8125 1511.25 C246.83881579 1520.25 246.83881579 1520.25 244.8125 1520.25 C244.4825 1523.22 244.1525 1526.19 243.8125 1529.25 C241.8125 1535.25 241.8125 1535.25 239.8125 1535.25 C239.4825 1537.23 239.1525 1539.21 238.8125 1541.25 C233.60537462 1552.24282024 227.52524216 1562.13945008 220.8125 1572.25 C220.4825 1573.24 220.1525 1574.23 219.8125 1575.25 C219.1525 1575.25 218.4925 1575.25 217.8125 1575.25 C217.4825 1576.9 217.1525 1578.55 216.8125 1580.25 C215.3275 1583.715 215.3275 1583.715 213.8125 1587.25 C212.75648013 1591.90430981 211.74848524 1596.57007378 210.8125 1601.25 C210.4825 1601.58 210.1525 1601.91 209.8125 1602.25 C209.4825 1605.55 209.1525 1608.85 208.8125 1612.25 C208.4825 1612.58 208.1525 1612.91 207.8125 1613.25 C207.68875 1615.786875 207.565 1618.32375 207.4375 1620.9375 C206.8125 1630.25 206.8125 1630.25 205.83984375 1636.3671875 C204.72816033 1643.81504371 204.19697646 1651.17153455 203.75 1658.6875 C202.91102599 1672.65884407 202.91102599 1672.65884407 201.8125 1679.25 C201.72840671 1684.03843477 201.70522696 1688.82802403 201.71484375 1693.6171875 C201.71967773 1697.85175781 201.71967773 1697.85175781 201.72460938 1702.171875 C201.73298828 1705.12640625 201.74136719 1708.0809375 201.75 1711.125 C201.75676758 1715.59160156 201.75676758 1715.59160156 201.76367188 1720.1484375 C201.78591017 1734.02513594 202.16098969 1743.55683632 205.8125 1757.25 C205.8125 1766.49 205.8125 1775.73 205.8125 1785.25 C211.53012325 1798.1146523 217.46775495 1804.972562 229.4375 1812.3125 C242.8125 1820.57352941 242.8125 1820.57352941 242.8125 1828.25 C243.4725 1828.25 244.1325 1828.25 244.8125 1828.25 C245.8025 1831.22 246.7925 1834.19 247.8125 1837.25 C250.68317233 1844.31627035 253.71418322 1851.27878725 256.8125 1858.25 C259.15565073 1863.91261426 261.49040124 1869.57872035 263.8125 1875.25 C264.8025 1876.57 265.7925 1877.89 266.8125 1879.25 C269.17820305 1900.54132743 156.1310226 1901.20556779 149.8125 1882.25 C149.1525 1880.6 148.4925 1878.95 147.8125 1877.25 C146.8125 1872.91666667 145.8125 1868.58333333 144.8125 1864.25 C144.1525 1862.6 143.4925 1860.95 142.8125 1859.25 C144.7125 1840.25 144.7125 1840.25 151.8125 1840.25 C152.4725 1838.6 153.1325 1836.95 153.8125 1835.25 C154.4725 1834.26 155.1325 1833.27 155.8125 1832.25 C155.8125 1813.3500985 145.68886477 1807.82735591 129.8125 1800.25 C115.37978203 1781.00637604 116.28697966 1762.30104067 126.8125 1741.25 C127.4725 1736.3 128.1325 1731.35 128.8125 1726.25 C129.1425 1725.59 129.4725 1724.93 129.8125 1724.25 C130.4725 1718.97 131.1325 1713.69 131.8125 1708.25 C132.1425 1707.92 132.4725 1707.59 132.8125 1707.25 C135.74376961 1688.24149975 138.19759405 1669.4236184 139.27734375 1650.21875 C139.8059737 1643.33498485 140.81181148 1636.68404278 141.9375 1629.875 C147.27115282 1592.55948159 148.19670971 1544.594734 137.8125 1508.25 C137.8125 1477.71328475 143.82948699 1470.70777417 165.8125 1453.25 C176.15279285 1444.53461031 184.94024059 1435.27116317 192.8125 1424.25 C194.1325 1422.414375 195.4525 1420.57875 196.8125 1418.6875 C200.95657363 1412.01813151 204.23683833 1405.26936946 207.5078125 1398.14453125 C209.73327731 1393.4182475 212.13193469 1388.83969236 214.625 1384.25 C217.9738391 1377.85221784 220.56694997 1372.06408285 222.8125 1365.25 C223.84375 1362.383125 224.875 1359.51625 225.9375 1356.5625 C231.53118586 1340.38945176 232.99356118 1325.24722431 228.375 1308.3125 C226.5944617 1301.78385958 225.56871282 1296.05591536 224.8125 1289.25 C219.439822 1288.50464401 219.439822 1288.50464401 217.8125 1293.25 C211.8125 1299.25 211.8125 1299.25 209.8125 1299.25 C209.1525 1300.57 208.4925 1301.89 207.8125 1303.25 C203.8125 1306.25 203.8125 1306.25 201.8125 1306.25 C201.8125 1306.91 201.8125 1307.57 201.8125 1308.25 C183.69563376 1322.743493 193.92063254 1287.41616461 195.8125 1280.25 C199.58157971 1264.12671459 200.13899429 1247.67839416 200.0625 1231.1875 C200.07023437 1229.51623047 200.07796875 1227.84496094 200.0859375 1226.12304688 C200.06871976 1215.03052052 199.1341057 1204.2547089 197.8125 1193.25 C197.74071362 1188.5838855 197.71323169 1183.91561074 197.8125 1179.25 C194.8425 1179.58 191.8725 1179.91 188.8125 1180.25 C185.8125 1176.25 185.8125 1176.25 185.8125 1174.25 C185.1525 1174.25 184.4925 1174.25 183.8125 1174.25 C178.73150052 1166.62850078 179.40209584 1139.25 192.8125 1139.25 C192.80202637 1137.58316162 192.79155273 1135.91632324 192.78076172 1134.19897461 C192.73877249 1126.52849888 192.71303809 1118.85804746 192.6875 1111.1875 C192.67074219 1108.56619141 192.65398437 1105.94488281 192.63671875 1103.24414062 C192.53162092 1061.04736253 192.53162092 1061.04736253 198.8125 1045.25 C199.245625 1043.72375 199.67875 1042.1975 200.125 1040.625 C204.45298678 1026.83956063 210.18171463 1014.04625246 216.8125 1001.25 C213.47916667 1000.75 213.47916667 1000.75 213.8125 1003.25 C212.1625 1003.91 210.5125 1004.57 208.8125 1005.25 C208.8125 1005.91 208.8125 1006.57 208.8125 1007.25 C207.183125 1008.508125 205.55375 1009.76625 203.875 1011.0625 C186.45469347 1025.96853549 173.83919289 1047.63857072 169.8125 1070.25 C169.1525 1071.9 168.4925 1073.55 167.8125 1075.25 C164.937059 1087.86252627 162.53900913 1100.31813751 161.8125 1113.25 C161.4825 1114.77625 161.1525 1116.3025 160.8125 1117.875 C156.56715822 1140.69371206 157.50959467 1166.27534605 159.8125 1189.25 C159.85086831 1194.58319532 159.85808238 1199.91686146 159.8125 1205.25 C160.4725 1205.25 161.1325 1205.25 161.8125 1205.25 C161.93625 1207.6425 162.06 1210.035 162.1875 1212.5 C162.6265867 1220.78176142 162.6265867 1220.78176142 163.83276367 1227.00317383 C165.59580903 1238.24440027 165.14918354 1249.58170234 165.125 1260.9375 C165.12153564 1263.53343018 165.11807129 1266.12936035 165.11450195 1268.80395508 C164.66562622 1348.25 164.66562622 1348.25 153.8125 1348.25 C153.8125 1350.56 153.8125 1352.87 153.8125 1355.25 C152.86375 1357.76625 151.915 1360.2825 150.9375 1362.875 C149.15910199 1367.64110667 147.42117872 1372.42396384 145.8125 1377.25 C141.81578887 1386.41892554 137.28454366 1395.30591268 132.8125 1404.25 C131.8225 1406.56 130.8325 1408.87 129.8125 1411.25 C129.1525 1411.58 128.4925 1411.91 127.8125 1412.25 C125.8325 1415.715 125.8325 1415.715 123.8125 1419.25 C119.34986224 1426.40706055 114.66815812 1433.35496546 109.8125 1440.25 C109.4825 1440.91 109.1525 1441.57 108.8125 1442.25 C108.1525 1442.25 107.4925 1442.25 106.8125 1442.25 C106.1525 1443.9 105.4925 1445.55 104.8125 1447.25 C101.8125 1452.25 101.8125 1452.25 99.8125 1452.25 C99.4825 1453.9 99.1525 1455.55 98.8125 1457.25 C93.8125 1463.25 93.8125 1463.25 91.8125 1463.25 C91.8125 1464.57 91.8125 1465.89 91.8125 1467.25 C91.1525 1467.25 90.4925 1467.25 89.8125 1467.25 C89.1525 1468.57 88.4925 1469.89 87.8125 1471.25 C86.4925 1473.23 85.1725 1475.21 83.8125 1477.25 C83.1525 1478.9 82.4925 1480.55 81.8125 1482.25 C80.1625 1483.9 78.5125 1485.55 76.8125 1487.25 C74.8325 1490.715 74.8325 1490.715 72.8125 1494.25 C72.1525 1494.25 71.4925 1494.25 70.8125 1494.25 C70.4825 1495.9 70.1525 1497.55 69.8125 1499.25 C69.1525 1499.25 68.4925 1499.25 67.8125 1499.25 C67.4825 1500.9 67.1525 1502.55 66.8125 1504.25 C66.1525 1504.25 65.4925 1504.25 64.8125 1504.25 C64.4825 1505.57 64.1525 1506.89 63.8125 1508.25 C61.3375 1511.22 61.3375 1511.22 58.8125 1514.25 C56.8325 1519.2 56.8325 1519.2 54.8125 1524.25 C54.1525 1524.91 53.4925 1525.57 52.8125 1526.25 C50.60844227 1531.51357457 50.60844227 1531.51357457 48.8125 1538.25 C46.8125 1543.25 46.8125 1543.25 44.8125 1543.25 C44.8125 1545.89 44.8125 1548.53 44.8125 1551.25 C44.4825 1552.57 44.1525 1553.89 43.8125 1555.25 C43.8125 1562.84 43.8125 1570.43 43.8125 1578.25 C41.8125 1578.25 41.8125 1578.25 40.8125 1574.25 C40.1525 1574.25 39.4925 1574.25 38.8125 1574.25 C38.01338931 1571.85266793 26.89988768 1529.25 37.8125 1529.25 C38.1425 1526.61 38.4725 1523.97 38.8125 1521.25 C42.74968822 1510.88207102 48.08278492 1501.72878791 53.8125 1492.25 C56.74276965 1487.38464663 59.65075197 1482.54588054 62.375 1477.5625 C64.8125 1473.25 64.8125 1473.25 69.8125 1466.25 C71.6087227 1459.06510921 68.73027509 1462.41444982 66.8125 1466.25 C64.3375 1469.22 64.3375 1469.22 61.8125 1472.25 C61.4825 1473.24 61.1525 1474.23 60.8125 1475.25 C59.8225 1475.25 58.8325 1475.25 57.8125 1475.25 C57.1525 1476.57 56.4925 1477.89 55.8125 1479.25 C54.018125 1481.333125 52.22375 1483.41625 50.375 1485.5625 C32.86547278 1506.03801022 16.31591597 1525.98804411 8.8125 1552.25 C8.1525 1552.91 7.4925 1553.57 6.8125 1554.25 C4.59385233 1561.33802699 4.59385233 1561.33802699 3.8125 1569.25 C3.4825 1569.58 3.1525 1569.91 2.8125 1570.25 C1.03374731 1580.90134052 0.54386563 1591.14354206 0.5625 1601.9375 C0.55734375 1604.93199219 0.5521875 1607.92648437 0.546875 1611.01171875 C0.76326683 1617.72304775 1.35760889 1623.72031015 2.8125 1630.25 C-0.1875 1629.25 -0.1875 1629.25 -0.1875 1627.25 C-0.8475 1627.25 -1.5075 1627.25 -2.1875 1627.25 C-6.1875 1619.25 -6.1875 1619.25 -6.1875 1616.25 C-6.8475 1616.25 -7.5075 1616.25 -8.1875 1616.25 C-22.0549843 1585.6750673 -22.0549843 1585.6750673 -25.1875 1572.25 C-25.8475 1570.27 -26.5075 1568.29 -27.1875 1566.25 C-29.1875 1558.25 -29.1875 1558.25 -29.1875 1553.25 C-29.8475 1553.25 -30.5075 1553.25 -31.1875 1553.25 C-32.38894702 1543.26297166 -36.88284197 1480.25 -28.1875 1480.25 C-27.8575 1476.62 -27.5275 1472.99 -27.1875 1469.25 C-26.1975 1466.94 -25.2075 1464.63 -24.1875 1462.25 C-23.61 1460.290625 -23.0325 1458.33125 -22.4375 1456.3125 C-12.70698052 1425.76948052 -12.70698052 1425.76948052 -4.1875 1417.25 C-2.8571875 1414.28 -2.8571875 1414.28 -1.5 1411.25 C1.8125 1404.25 1.8125 1404.25 6.8125 1396.25 C12.42641056 1387.56207884 12.42641056 1387.56207884 9.8125 1382.25 C9.1525 1383.9 8.4925 1385.55 7.8125 1387.25 C6.141875 1389.065 4.47125 1390.88 2.75 1392.75 C-3.70033886 1399.81142359 -9.96362259 1406.98880969 -16.1875 1414.25 C-17.8375 1415.9 -19.4875 1417.55 -21.1875 1419.25 C-38.88797418 1440.12748237 -52.21447409 1459.43881865 -56.1875 1487.25 C-56.5175 1487.91 -56.8475 1488.57 -57.1875 1489.25 C-57.5175 1493.21 -57.8475 1497.17 -58.1875 1501.25 C-73.54991278 1496.12919574 -59.9086997 1443.57762435 -55.1875 1433.25 C-54.465625 1431.435 -53.74375 1429.62 -53 1427.75 C-50.38194444 1421.25 -50.38194444 1421.25 -48.1875 1421.25 C-47.8575 1419.6 -47.5275 1417.95 -47.1875 1416.25 C-45.6096875 1413.8059375 -45.6096875 1413.8059375 -44 1411.3125 C-40.88642083 1406.3613987 -37.96892792 1401.39142736 -35.1875 1396.25 C-34.1975 1395.59 -33.2075 1394.93 -32.1875 1394.25 C-30.7025 1390.785 -30.7025 1390.785 -29.1875 1387.25 C-25.87431422 1382.23662678 -22.5392268 1377.2376887 -19.1875 1372.25 C-15.62792533 1366.31737554 -12.28098743 1360.43697486 -9.1875 1354.25 C-8.5275 1354.25 -7.8675 1354.25 -7.1875 1354.25 C-6.8575 1352.6 -6.5275 1350.95 -6.1875 1349.25 C-5.07375 1347.043125 -3.96 1344.83625 -2.8125 1342.5625 C-0.8084228 1338.51979254 1.13671674 1334.43945814 2.8125 1330.25 C3.4725 1330.25 4.1325 1330.25 4.8125 1330.25 C5.4725 1327.28 6.1325 1324.31 6.8125 1321.25 C12.4475365 1301.6149635 12.4475365 1301.6149635 13.8125 1300.25 C14.10125 1298.72375 14.39 1297.1975 14.6875 1295.625 C15.8125 1290.25 15.8125 1290.25 17.8125 1284.25 C20.66229317 1271.42593072 20.97333678 1259.05359519 21.25 1245.9375 C22.10045582 1212.8102209 22.10045582 1212.8102209 24.8125 1199.25 C25.0290625 1195.723125 25.0290625 1195.723125 25.25 1192.125 C25.71568268 1185.60544252 26.5348954 1179.638023 27.8125 1173.25 C29.32653731 1164.69239779 30.83128064 1156.13649964 32.25 1147.5625 C36.12731481 1126.93518519 36.12731481 1126.93518519 38.8125 1124.25 C39.4725 1121.28 40.1325 1118.31 40.8125 1115.25 C42.2975 1111.785 42.2975 1111.785 43.8125 1108.25 C37.60030105 1112.42708213 37.60030105 1112.42708213 36.8125 1117.25 C35.1625 1118.9 33.5125 1120.55 31.8125 1122.25 C28.10477637 1127.81158544 24.80292006 1133.26915987 21.8125 1139.25 C15.91612324 1148.09456514 18.16864228 1135.55750113 20.0625 1131.875 C22.57743804 1126.73080856 24.72220271 1121.57688663 26.8125 1116.25 C30.8125 1107.25 30.8125 1107.25 32.8125 1106.25 C34.7925 1101.3 34.7925 1101.3 36.8125 1096.25 C37.4725 1095.59 38.1325 1094.93 38.8125 1094.25 C39.8025 1091.61 40.7925 1088.97 41.8125 1086.25 C43.60414792 1083.12992369 45.46170938 1080.04699811 47.375 1077 C51.30011831 1070.74056341 51.30011831 1070.74056341 54.8125 1064.25 C55.4725 1063.92 56.1325 1063.59 56.8125 1063.25 C60.08272641 1058.05483648 60.08272641 1058.05483648 62.8125 1051.25 C64.1325 1049.93 65.4525 1048.61 66.8125 1047.25 C68.1325 1044.61 69.4525 1041.97 70.8125 1039.25 C90.39115819 1010.94292523 113.51981874 982.89634063 144.8125 967.25 C146.7925 965.93 148.7725 964.61 150.8125 963.25 C172.5493065 952.57920408 192.98598906 947.2630386 216.8125 944.25 C217.4725 943.92 218.1325 943.59 218.8125 943.25 C229.3725 942.92 239.9325 942.59 250.8125 942.25 C258.1733711 937.15401231 265.51754546 932.06040612 272.8125 926.875 C285.07916667 918.25 285.07916667 918.25 287.8125 918.25 C287.8125 917.59 287.8125 916.93 287.8125 916.25 C290.7825 914.765 290.7825 914.765 293.8125 913.25 C296.78148916 911.53919409 299.73923588 909.80877952 302.6875 908.0625 C310.8125 903.25 310.8125 903.25 315.8125 902.25 C315.8125 901.59 315.8125 900.93 315.8125 900.25 C319.4550741 898.47247213 323.10170151 896.70324899 326.75 894.9375 C328.78027344 893.95136719 330.81054688 892.96523438 332.90234375 891.94921875 C338.8125 889.25 338.8125 889.25 347.8125 886.25 C347.8125 885.59 347.8125 884.93 347.8125 884.25 C356.8125 880.25 356.8125 880.25 363.8125 878.25 C363.8125 877.59 363.8125 876.93 363.8125 876.25 C373.4023153 872.58085328 382.96682695 869.16351549 392.8125 866.25 C394.42125 865.71375 396.03 865.1775 397.6875 864.625 C412.05413062 860.77053813 426.61913772 860.90057768 441.375 860.9375 C443.54457275 860.93951416 445.71414551 860.94152832 447.94946289 860.94360352 C462.30377028 861.03284036 476.39749492 861.80636316 490.66015625 863.515625 C498.70842178 864.47630685 506.71764526 864.89496251 514.8125 865.25 C516.7925 865.91 518.7725 866.57 520.8125 867.25 C536.71180292 870.50083647 536.71180292 870.50083647 529.8125 855.25 C529.8125 828.54507147 540.36886183 814.96522739 567.8125 813.25 C561.92154464 798.42104339 555.27184778 783.78495645 546.8125 770.25 C545.46565815 766.58827373 544.13257569 762.92146052 542.8125 759.25 C541.15374328 756.24561921 539.48593812 753.24622807 537.8125 750.25 C536.03865702 746.59480841 534.29002668 742.92730826 532.5625 739.25 C527.89894695 729.4277048 522.94438615 719.83455207 517.8125 710.25 C510.8125 696.35769231 510.8125 696.35769231 510.8125 693.25 C505.04820226 695.01429774 505.04820226 695.01429774 500.8125 697.25 C481.8125 697.25 481.8125 697.25 481.8125 694.25 C479.8325 693.92 477.8525 693.59 475.8125 693.25 C467.8125 687.25 467.8125 687.25 467.8125 685.25 C466.4925 684.59 465.1725 683.93 463.8125 683.25 C454.8093716 671.87104605 447.07128425 660.35432952 440.8125 647.25 C438.5025 644.94 436.1925 642.63 433.8125 640.25 C422.23391363 624.81188484 425.11265924 613.76974521 434.8125 598.25 C435.4725 592.31 436.1325 586.37 436.8125 580.25 C437.4725 580.25 438.1325 580.25 438.8125 580.25 C438.8125 579.59 438.8125 578.93 438.8125 578.25 C450.0125 571.25 450.0125 571.25 454.8125 571.25 C454.94387085 563.92001684 454.94387085 563.92001684 451.8125 564.25 C451.8125 562.93 451.8125 561.61 451.8125 560.25 C451.1525 560.25 450.4925 560.25 449.8125 560.25 C449.25820313 558.82042969 448.70390625 557.39085937 448.1328125 555.91796875 C445.09802015 548.50469653 441.57097958 541.37009397 438.0546875 534.17578125 C435.8125 529.25 435.8125 529.25 433.8125 522.25 C433.1525 522.25 432.4925 522.25 431.8125 522.25 C430.8225 519.61 429.8325 516.97 428.8125 514.25 C426.18156666 508.89894914 423.51040081 503.5676016 420.8125 498.25 C419.36875 495.341875 417.925 492.43375 416.4375 489.4375 C413.28610634 482.82977186 413.28610634 482.82977186 410.8125 479.25 C409.3275 474.795 409.3275 474.795 407.8125 470.25 C406.8225 468.6 405.8325 466.95 404.8125 465.25 C401.8125 460.25 401.8125 460.25 400.8125 453.25 C399.8225 452.92 398.8325 452.59 397.8125 452.25 C397.173125 450.496875 396.53375 448.74375 395.875 446.9375 C392.24370174 437.82220029 388.07276678 429.08846391 383.8125 420.25 C383.8125 419.59 383.8125 418.93 383.8125 418.25 C383.1525 418.25 382.4925 418.25 381.8125 418.25 C381.255625 416.785625 380.69875 415.32125 380.125 413.8125 C377.98072903 408.3563204 377.98072903 408.3563204 375.375 403.875 C372.38987209 398.48720816 370.12984021 392.95422204 367.8125 387.25 C364.02786696 378.73457566 360.0192617 370.37635269 355.9375 362 C341.8125 333.01074766 341.8125 333.01074766 341.8125 330.25 C341.1525 330.25 340.4925 330.25 339.8125 330.25 C335.8125 320.25 335.8125 320.25 335.8125 318.25 C335.1525 318.25 334.4925 318.25 333.8125 318.25 C333.090625 316.331875 332.36875 314.41375 331.625 312.4375 C327.57030319 302.07549704 322.83374636 292.17571954 317.8125 282.25 C317.8125 281.26 317.8125 280.27 317.8125 279.25 C317.1525 279.25 316.4925 279.25 315.8125 279.25 C314.74 276.775 313.6675 274.3 312.5625 271.75 C310.10978829 266.19052013 307.52998454 260.68496908 304.8125 255.25 C303.9875 253.579375 303.1625 251.90875 302.3125 250.1875 C300.26582057 246.14530813 298.06040976 242.18384208 295.8125 238.25 C295.1525 236.6 294.4925 234.95 293.8125 233.25 C292.4925 232.59 291.1725 231.93 289.8125 231.25 C289.8125 230.59 289.8125 229.93 289.8125 229.25 C288.1625 228.92 286.5125 228.59 284.8125 228.25 C280.77792719 224.21542719 283.16841476 216.94463609 282.8125 211.25 C280.11430004 206.34641708 280.11430004 206.34641708 266.8125 207.25 C259.6125 196.45 259.6125 196.45 264.8125 191.25 C264.8125 182.72405418 261.80816318 178.25433682 254.8125 185.25 C250.8125 183.25 250.8125 183.25 248.8125 178.25 C239.48120542 175.70395863 239.48120542 175.70395863 239.8125 179.25 C236.8425 179.91 233.8725 180.57 230.8125 181.25 C228.8325 182.24 226.8525 183.23 224.8125 184.25 C223.8225 184.25 222.8325 184.25 221.8125 184.25 C221.8125 184.91 221.8125 185.57 221.8125 186.25 C215.8725 189.22 215.8725 189.22 209.8125 192.25 C208.28625 193.631875 206.76 195.01375 205.1875 196.4375 C201.45683661 199.77774513 197.6593704 203.04427467 193.8125 206.25 C182.95740478 223.13570368 177.81967644 236.89294577 177.6875 256.625 C177.66429687 259.29335938 177.64109375 261.96171875 177.6171875 264.7109375 C177.91238524 276.10557018 180.31370623 285.75281454 184.8125 296.25 C185.4725 298.23 186.1325 300.21 186.8125 302.25 C187.8025 304.23 188.7925 306.21 189.8125 308.25 C192.8125 314.25 192.8125 314.25 194.8125 320.25 C195.4725 320.25 196.1325 320.25 196.8125 320.25 C196.8125 321.57 196.8125 322.89 196.8125 324.25 C197.4725 324.25 198.1325 324.25 198.8125 324.25 C199.72 325.466875 200.6275 326.68375 201.5625 327.9375 C213.69039949 343.09737436 226.56550886 354.71141115 242.8125 365.25 C245.17897129 367.61647129 242.20885321 379.07917435 241.8125 382.25 C241.08587855 407.8604283 241.18464932 432.56312456 248.8125 457.25 C249.51466337 460.57603701 250.19180589 463.90780097 250.8125 467.25 C251.4725 468.57 252.1325 469.89 252.8125 471.25 C252.8125 473.23 252.8125 475.21 252.8125 477.25 C253.4725 477.25 254.1325 477.25 254.8125 477.25 C255.245625 479.065 255.67875 480.88 256.125 482.75 C257.77733651 489.58032574 257.77733651 489.58032574 260.8125 497.25 C263.22143483 506.88573933 238.16207597 489.47346244 232.8125 486.25 C228.81393665 483.91420557 224.81409396 481.58059868 220.8125 479.25 C215.8125 476.25 215.8125 476.25 215.8125 474.25 C213.8325 473.59 211.8525 472.93 209.8125 472.25 C209.8125 471.59 209.8125 470.93 209.8125 470.25 C207.8325 469.59 205.8525 468.93 203.8125 468.25 C193.8125 462.43604651 193.8125 462.43604651 193.8125 460.25 C191.8325 459.59 189.8525 458.93 187.8125 458.25 C187.8125 457.59 187.8125 456.93 187.8125 456.25 C186.1625 455.59 184.5125 454.93 182.8125 454.25 C175.8125 449.25 175.8125 449.25 175.8125 447.25 C174.4925 446.92 173.1725 446.59 171.8125 446.25 C163.8125 441.25 163.8125 441.25 163.8125 439.25 C162.1625 438.59 160.5125 437.93 158.8125 437.25 C155.8125 435.25 155.8125 435.25 155.8125 433.25 C154.4925 432.59 153.1725 431.93 151.8125 431.25 C147.8125 428.25 147.8125 428.25 147.8125 426.25 C146.4925 425.92 145.1725 425.59 143.8125 425.25 C143.8125 424.59 143.8125 423.93 143.8125 423.25 C142.4925 422.92 141.1725 422.59 139.8125 422.25 C139.8125 421.59 139.8125 420.93 139.8125 420.25 C138.4925 419.59 137.1725 418.93 135.8125 418.25 C133.14583333 415.91666667 130.47916667 413.58333333 127.8125 411.25 C126.430625 410.05375 125.04875 408.8575 123.625 407.625 C120.5906824 404.93888278 117.67801121 402.11551121 114.8125 399.25 C112.5025 397.27 110.1925 395.29 107.8125 393.25 C105.44979114 390.60932539 103.12161827 387.93766225 100.8125 385.25 C98.915 383.22875 97.0175 381.2075 95.0625 379.125 C72.80723425 354.64420768 54.36441907 326.81017408 37.8125 298.25 C36.8225 296.6 35.8325 294.95 34.8125 293.25 C34.4825 291.6 34.1525 289.95 33.8125 288.25 C32.8225 287.92 31.8325 287.59 30.8125 287.25 C27.8125 280.25 27.8125 280.25 25.8125 271.25 C24.8225 270.92 23.8325 270.59 22.8125 270.25 C21.3275 266.29 21.3275 266.29 19.8125 262.25 C19.1525 260.93 18.4925 259.61 17.8125 258.25 C17.8125 257.26 17.8125 256.27 17.8125 255.25 C16.8225 254.92 15.8325 254.59 14.8125 254.25 C14.27625 252.5175 13.74 250.785 13.1875 249 C10.98249807 242.28401589 10.98249807 242.28401589 7.875 236.375 C4.59042072 229.80584144 2.19120261 223.19324005 -0.1875 216.25 C-2.33927531 210.51193251 -4.69857838 204.85007364 -7.1875 199.25 C-8.14587597 195.58328529 -9.01858229 191.89330301 -9.8125 188.1875 C-11.18753198 181.84220912 -12.61222138 175.55111446 -14.1875 169.25 C-15.00438031 162.59393822 -15.57231627 155.92913767 -16.1875 149.25 C-16.5175 148.59 -16.8475 147.93 -17.1875 147.25 C-21.7232106 117.01192932 -22.23330031 85.13632479 -17.921875 54.875 C-16.76516792 46.01511595 -16.49958024 37.17549497 -16.1875 28.25 C-15.8575 27.92 -15.5275 27.59 -15.1875 27.25 C-15.06375 24.81625 -14.94 22.3825 -14.8125 19.875 C-14.3407226 13.36447195 -13.57440923 7.57777338 -12.1875 1.25 C-10.68473347 -12.27489874 -8.67693042 -8.14876944 0 0 Z " transform="translate(285.1875,68.75)" style="fill: #0B8FA0;"/><path d="M0 0 C1.32 0.33 2.64 0.66 4 1 C14 3.97619048 14 3.97619048 14 6 C17.63 6.99 21.26 7.98 25 9 C25.495 9.99 25.495 9.99 26 11 C33.59 11.99 41.18 12.98 49 14 C49 14.66 49 15.32 49 16 C72.04422891 18.50618025 72.04422891 18.50618025 74 1 C98.04028151 5.8080563 79.66204162 26.57617803 64 28 C65.86100294 38.25882238 65.86100294 38.25882238 74.875 40.4375 C81 42 81 42 83 43 C94.73268351 43.13566718 94.73268351 43.13566718 98 33 C120.7647663 44.38238315 83.89371212 53.68862259 71 49 C71.99 51.475 71.99 51.475 73 54 C73 55.32 73 56.64 73 58 C73.66 58 74.32 58 75 58 C79 64 79 64 79 66 C81.97 66.33 84.94 66.66 88 67 C89.32 67.66 90.64 68.32 92 69 C106.16078365 70.74751794 106.16078365 70.74751794 109 59 C113 61 113 61 114.625 65.5625 C117.28243012 72.76553428 120.13859483 79.87568509 123 87 C126.64173065 96.43995783 128.42654272 103.87383804 129.5 113.9375 C129.7784375 116.52464844 130.056875 119.11179687 130.34375 121.77734375 C131.74962816 137.25037184 131.74962816 137.25037184 128 141 C127.67 142.32 127.34 143.64 127 145 C121 145 121 145 115 141 C112.69 140.01 110.38 139.02 108 138 C92 128.71604938 92 128.71604938 92 126 C86.92650153 126 88.22297721 128.7409924 92 130 C92.99 131.65 93.98 133.3 95 135 C100.68507473 142.10634342 121.27069039 166.32327404 127 152 C131.83981896 153.20995474 138.16255914 166 130 166 C128.91440093 174.68479258 128.92589521 183.25563443 129 192 C128 196 128 196 125 196 C125 198.64 125 201.28 125 204 C122.1018521 209.87462412 109.20279533 230.58043272 112 211 C112.66 211 113.32 211 114 211 C115.4041603 198.36255726 110.54973524 192.06631366 103 182 C99 172 99 172 99 170 C98.01 169.67 97.02 169.34 96 169 C95.401875 167.14375 94.80375 165.2875 94.1875 163.375 C92.13948921 156.94721096 92.13948921 156.94721096 89 151 C88.01 146.545 88.01 146.545 87 142 C81.41352463 137.6361212 81.41352463 137.6361212 82 159 C73.17145944 176.65708113 69.83583266 149.85082859 69 144 C65.34427075 142.22682671 65.34427075 142.22682671 64 148 C39.37869822 183.41420118 39.37869822 183.41420118 28 191 C25.525 193.475 25.525 193.475 23 196 C22.34 196 21.68 196 21 196 C20.67 196.99 20.34 197.98 20 199 C17.2775 199.61875 17.2775 199.61875 14.5 200.25 C3.7208089 203.15208991 -3.17203113 208.17203113 -11 216 C-15.41365365 218.20682683 -28 224.04169148 -28 216 C-30.64 215.67 -33.28 215.34 -36 215 C-56 205.45454545 -56 205.45454545 -56 201 C-56.99 200.67 -57.98 200.34 -59 200 C-59 192.25099052 -52.72441121 192.10235515 -51 199 C-49.02 199.33 -47.04 199.66 -45 200 C-45 200.66 -45 201.32 -45 202 C-43.164375 202.433125 -41.32875 202.86625 -39.4375 203.3125 C-33 205 -33 205 -26 208 C-14.78335544 209.70220727 -14.78335544 209.70220727 -13 203 C-10.03 202.01 -7.06 201.02 -4 200 C-4 194.8252751 -13.8706683 196.68391089 -19 196 C-21.5678125 194.88625 -21.5678125 194.88625 -24.1875 193.75 C-30.91983361 190.91747003 -30.91983361 190.91747003 -37.75 188.9375 C-45.7609084 186.4541184 -78.50798658 159.12300336 -63 163 C-62.01 163.99 -61.02 164.98 -60 166 C-59.01 166.33 -58.02 166.66 -57 167 C-56.01 167.99 -55.02 168.98 -54 170 C-47.30052356 173.82827225 -41.35880783 175.83564476 -34 178 C-32.35 178.66 -30.7 179.32 -29 180 C-18.79949614 183.3554289 -9.12788289 184.12651427 1.5625 184.0625 C3.52316406 184.05347656 5.48382812 184.04445313 7.50390625 184.03515625 C12.82040784 184.32347334 12.82040784 184.32347334 20 180 C20.99 179.67 21.98 179.34 23 179 C23 178.34 23 177.68 23 177 C25.3821875 175.1128125 25.3821875 175.1128125 27.8125 173.1875 C32.76453022 169.34153476 32.76453022 169.34153476 36 166 C36.66 166 37.32 166 38 166 C38 165.01 38 164.02 38 163 C40.97 160.525 40.97 160.525 44 158 C44.99 156.68 45.98 155.36 47 154 C47.66 154 48.32 154 49 154 C49 148.60888692 28.79871802 158.20128198 25 162 C24.01 162 23.02 162 22 162 C22 162.66 22 163.32 22 164 C17.96172162 166.69218559 8 172.85340659 8 168 C6.58976562 167.86335937 5.17953125 167.72671875 3.7265625 167.5859375 C-2.06655398 166.99319025 -7.84531266 166.336935 -13.625 165.625 C-15.57664062 165.39039063 -17.52828125 165.15578125 -19.5390625 164.9140625 C-25 164 -25 164 -33 161 C-35.97 160.34 -38.94 159.68 -42 159 C-47.90452241 156.12093535 -87.47468663 125.30506267 -64 130 C-62.02 132.475 -62.02 132.475 -60 135 C-37.68075069 157.31924931 5.7561062 156.6639528 32 145 C40.27239261 141.32338106 48.41847582 137.86050806 57 135 C57.33 134.01 57.66 133.02 58 132 C58.66 132 59.32 132 60 132 C63.67848252 119.12531119 52.51174153 127.24412923 45 131 C38 133 38 133 33 133 C33 133.99 33 134.98 33 136 C29.04 136.99 25.08 137.98 21 139 C20.67 139.33 20.34 139.66 20 140 C10 140 10 140 8 136 C4.7515625 135.8453125 4.7515625 135.8453125 1.4375 135.6875 C-10.40438854 134.72260538 -20.11791221 132.83648346 -31 128 C-33.000625 127.360625 -35.00125 126.72125 -37.0625 126.0625 C-42.84283369 124.05459461 -77.94839428 98 -55 98 C-54.01 99.65 -53.02 101.3 -52 103 C-50.02 103.99 -48.04 104.98 -46 106 C-45.505 106.99 -45.505 106.99 -45 108 C-40.71 109.32 -36.42 110.64 -32 112 C-31.67 112.99 -31.34 113.98 -31 115 C-29.35 115 -27.7 115 -26 115 C-24.68 115.66 -23.36 116.32 -22 117 C-12.8258654 119.03869658 77.72918583 120.72918583 59 102 C51.41151295 102 46.19569911 102.5452537 39 104 C17.2904195 105.24100794 -5.40342278 101.79828861 -25 92 C-28.32527348 90.64669103 -31.65740298 89.30993667 -35 88 C-43 82 -43 82 -45 77 C-45.66 77 -46.32 77 -47 77 C-47 72 -47 72 -45 72 C-44.34 70.68 -43.68 69.36 -43 68 C-40 68 -40 68 -37 72 C-36.01 72.33 -35.02 72.66 -34 73 C-34 73.66 -34 74.32 -34 75 C-31.03 75.99 -31.03 75.99 -28 77 C-25.69 77.99 -23.38 78.98 -21 80 C-17.67116919 81.01488744 -14.33800771 82.01571567 -11 83 C-9.35 83.66 -7.7 84.32 -6 85 C-3.03 85.66 -0.06 86.32 3 87 C5.31 87.66 7.62 88.32 10 89 C18.22746815 90.17535259 26.12575418 90.09386508 34.4375 90.0625 C37.52996094 90.05347656 40.62242188 90.04445313 43.80859375 90.03515625 C60.180356 89.95512048 58.94648824 75.29346818 44.8125 73.25 C1 66.24 1 66.24 1 61 C-1.31 60.67 -3.62 60.34 -6 60 C-8.93121125 58.24127325 -35.71827216 38 -19 38 C-18.34 39.65 -17.68 41.3 -17 43 C-2.47635747 50.27494647 -2.47635747 50.27494647 13 55 C15.97 55.99 18.94 56.98 22 58 C35.54351724 60.68878651 60.54314972 65.54314972 41 46 C39.60007812 45.75765625 38.20015625 45.5153125 36.7578125 45.265625 C27.40468151 43.57920748 18.69653514 41.9645969 10 38 C7.03 37.01 4.06 36.02 1 35 C0.34 34.34 -0.32 33.68 -1 33 C-4.3 31.68 -7.6 30.36 -11 29 C-23.16471446 18.86273795 -15.08236694 18.54137993 -5 23.3125 C4.49420394 27.68873463 53.37148672 44.37148672 30 21 C27.36 20.01 24.72 19.02 22 18 C17 16 17 16 12 14 C9.36 13.01 6.72 12.02 4 11 C4 10.34 4 9.68 4 9 C2.02 8.67 0.04 8.34 -2 8 C-6 6 -6 6 -6 4 C-7.98 3.67 -9.96 3.34 -12 3 C-35.44935752 -12.63290502 0 -5.0826604 0 0 Z " transform="translate(1031,500)" style="fill: #E7F4F5;"/><path d="M0 0 C4.04270746 2.0040772 8.12304186 3.94921674 12.3125 5.625 C39.74036885 28.62008197 39.74036885 28.62008197 42.3125 46.625 C47.46066877 43.53609874 50.68322075 40.28995046 54.9375 36.0625 C56.35289062 34.65871094 57.76828125 33.25492188 59.2265625 31.80859375 C62.73403896 28.21728659 66.04556112 24.43642869 69.3125 20.625 C71.3125 20.625 71.3125 20.625 72 25.625 C73.84151669 35.44642235 76.14370941 45.01034902 81.3125 53.625 C81.3125 54.945 81.3125 56.265 81.3125 57.625 C81.9725 57.625 82.6325 57.625 83.3125 57.625 C87.3125 62.625 87.3125 62.625 89.625 69.1875 C93.81750652 80.79001805 96.38873435 86.3828482 107.3125 92.625 C113.3125 96.625 113.3125 96.625 113.3125 102.625 C113.9725 102.625 114.6325 102.625 115.3125 102.625 C115.786875 104.543125 116.26125 106.46125 116.75 108.4375 C117.91776421 113.0644434 117.91776421 113.0644434 119.3125 117.625 C119.3125 133.625 119.3125 133.625 114.5 134.8125 C98.80873508 139.40893114 61.04709247 169.51883699 96.3125 183.625 C95.3125 187.625 95.3125 187.625 91.3125 191.9375 C84.23994893 199.98252684 78.37747975 208.1985099 73.3125 217.625 C71.9925 219.605 70.6725 221.585 69.3125 223.625 C67.58166698 230.54833209 65.6047071 242.9172071 71.3125 248.625 C71.3125 262.12557468 64.3125 265.71749586 64.3125 252.625 C63.6525 252.625 62.9925 252.625 62.3125 252.625 C61.44625 250.335625 61.44625 250.335625 60.5625 248 C58.38711974 242.32441385 58.38711974 242.32441385 54.3125 236.625 C54.3125 235.305 54.3125 233.985 54.3125 232.625 C53.6525 232.625 52.9925 232.625 52.3125 232.625 C48.3125 224.625 48.3125 224.625 48.3125 220.625 C47.6525 220.625 46.9925 220.625 46.3125 220.625 C45.3225 217.655 44.3325 214.685 43.3125 211.625 C41.6625 208.985 40.0125 206.345 38.3125 203.625 C33.78308824 192.50735294 33.78308824 192.50735294 32.3125 186.625 C31.6525 186.625 30.9925 186.625 30.3125 186.625 C29.590625 184.830625 28.86875 183.03625 28.125 181.1875 C25.56219704 174.88151138 25.56219704 174.88151138 22.8125 170.1875 C20.3125 165.625 20.3125 165.625 17.9375 159.4375 C13.74038145 148.54497806 8.32489279 138.60010621 2.3125 128.625 C-5.83035714 109.625 -5.83035714 109.625 4.3125 109.625 C4.9725 108.305 5.6325 106.985 6.3125 105.625 C6.9725 105.625 7.6325 105.625 8.3125 105.625 C8.3125 104.965 8.3125 104.305 8.3125 103.625 C8.9725 103.625 9.6325 103.625 10.3125 103.625 C10.3125 102.965 10.3125 102.305 10.3125 101.625 C21.35188852 90.58561148 13.13740206 106.80009794 9.3125 110.625 C8.3225 110.625 7.3325 110.625 6.3125 110.625 C6.3125 119.19737414 16.63499893 107.76700086 19.3125 105.625 C20.9625 104.635 22.6125 103.645 24.3125 102.625 C25.3025 101.635 26.2925 100.645 27.3125 99.625 C27.9725 99.625 28.6325 99.625 29.3125 99.625 C29.3125 98.965 29.3125 98.305 29.3125 97.625 C32.3125 94.625 35.3125 91.625 38.3125 88.625 C39.6325 86.315 40.9525 84.005 42.3125 81.625 C42.6425 81.295 42.9725 80.965 43.3125 80.625 C43.33951106 77.06254148 43.35890079 73.50002454 43.375 69.9375 C43.38660156 67.95363281 43.39820313 65.96976563 43.41015625 63.92578125 C44.0870419 57.17464624 44.0870419 57.17464624 40.3125 53.625 C39.9 52.14 39.4875 50.655 39.0625 49.125 C31.4529988 25.20942479 11.23704606 7.46058459 -12.6875 0.625 C-23.59028866 -10.27778866 -3.55170198 -1.79244773 0 0 Z " transform="translate(829.6875,637.375)" style="fill: #F9FCFC;"/><path d="M0 0 C5.70164642 -0.9122942 5.70164642 -0.9122942 13 -5 C47.44323488 -5 50.91960455 7.3653507 43 37 C44.98 37.495 44.98 37.495 47 38 C47 46 47 46 45 46 C44.67 46.99 44.34 47.98 44 49 C42.02 49.66 40.04 50.32 38 51 C38 51.66 38 52.32 38 53 C32.39 53 26.78 53 21 53 C20.34 54.65 19.68 56.3 19 58 C18.67 58.33 18.34 58.66 18 59 C17.55535135 68.90858969 17.55535135 68.90858969 19 74 C18.01411746 83.43630428 16.98832232 92.72116248 15 102 C14.67 104.64 14.34 107.28 14 110 C13.34 110 12.68 110 12 110 C11.67 111.65 11.34 113.3 11 115 C2.49660342 123.50339658 -16.67009019 124.98604466 -25.875 116.375 C-32.33206824 110.70859318 -39.01716405 105.46463512 -45.828125 100.234375 C-53.4615881 94.31629687 -81.44426332 59 -54 59 C-53.16272935 62.60325404 -52.33029581 66.20763236 -51.5 69.8125 C-51.0359375 71.81957031 -50.571875 73.82664062 -50.09375 75.89453125 C-49 81 -49 81 -49 84 C-47.515 84.495 -47.515 84.495 -46 85 C-46 85.66 -46 86.32 -46 87 C-43.69 87.66 -41.38 88.32 -39 89 C-37.35 90.65 -35.7 92.3 -34 94 C-34.66 92.68 -35.32 91.36 -36 90 C-33.53110991 75.18665945 -31.52533955 90.1705859 -31 97 C-25.65835921 96.2981424 -25.65835921 96.2981424 -25 87 C-23 87 -23 87 -20 99 C-16.95650161 100.89442719 -16.95650161 100.89442719 -18 93 C-11.21347716 89.60673858 -12 91.34673701 -12 99 C-8.52427043 99.31622777 -8.52427043 99.31622777 -7 90 C-3 89 -3 89 -1 102 C2.5 102.33333333 2.5 102.33333333 1 93 C1.66 93 2.32 93 3 93 C3 92.34 3 91.68 3 91 C5.52435744 91.63108936 10.47361906 95 5 95 C5 107.65707262 8.50111598 94.48772417 9 89 C10.98 87.515 10.98 87.515 13 86 C14.94789465 80.50970966 14.94789465 80.50970966 11 81 C10.67 79.35 10.34 77.7 10 76 C9.67 78.31 9.34 80.62 9 83 C2.20542286 89.79457714 2.6293338 81.29333803 2 75 C-1.47242035 74.66870542 -1.47242035 74.66870542 -1 84 C-6 83 -6 83 -7 71 C-11.16666667 70.5 -11.16666667 70.5 -10 78 C-11.91777404 87.58887019 -15 83.15559715 -15 75 C-22.3151919 72.7670076 -22.3151919 72.7670076 -21 82 C-25 81 -25 81 -25 73 C-28.87512333 73.80071449 -28.87512333 73.80071449 -29 80 C-31 80 -31 80 -33 74 C-33.99 73.505 -33.99 73.505 -35 73 C-35 66 -35 66 -33 66 C-34.56574815 48.77677037 -37.70045749 51.13526721 -57 50 C-61.54542749 48.181829 -88.14709536 35.36631728 -71.1875 32.0625 C-59.82442471 29.89902676 -59.82442471 29.89902676 -62 7 C-58 2 -58 2 -56 2 C-56 1.34 -56 0.68 -56 0 C-39.61594285 -10.24003572 -15.2689273 -15.2689273 0 0 Z " transform="translate(1069,346)" style="fill: #E5F4F5;"/><path d="M0 0 C9.57730092 5.82256587 9.57730092 5.82256587 15 7 C15 7.66 15 8.32 15 9 C15.66 9 16.32 9 17 9 C17 9.66 17 10.32 17 11 C19.31 11.66 21.62 12.32 24 13 C30 15 30 15 30 17 C31.98 17.495 31.98 17.495 34 18 C38 19 38 19 40.875 22.3125 C43.85705032 25.70119355 46.88380449 29.05072387 49.9375 32.375 C54.50138619 37.44598466 58.79670737 42.62912608 63 48 C65.64 49.98 68.28 51.96 71 54 C73.2944934 62.0307269 74.00662869 74 62 74 C62 74.66 62 75.32 62 76 C61.34 76 60.68 76 60 76 C59.34 77.65 58.68 79.3 58 81 C57.67 81.66 57.34 82.32 57 83 C57.16182317 92.47772288 57.16182317 92.47772288 63 99 C63 122.86470252 30.74092832 106.68523208 16 103 C11.7925 101.948125 11.7925 101.948125 7.5 100.875 C5.025 100.25625 2.55 99.6375 0 99 C-2.124375 98.484375 -4.24875 97.96875 -6.4375 97.4375 C-13.42183653 95.6325591 -19.79019044 93.72588574 -26 90 C-29.3 89.34 -32.6 88.68 -36 88 C-42.16238826 84.57645097 -49.94745481 61 -39 61 C-38.731875 59.2675 -38.46375 57.535 -38.1875 55.75 C-37.06999699 49.39787765 -35.57956247 43.24957325 -34 37 C-33.67 34.69 -33.34 32.38 -33 30 C-32.34 30 -31.68 30 -31 30 C-31 28.02 -31 26.04 -31 24 C-28 15 -28 15 -26 15 C-25.67 12.03 -25.34 9.06 -25 6 C-24.05125 3.97875 -23.1025 1.9575 -22.125 -0.125 C-18.96183367 -6.7655497 -18.96183367 -6.7655497 -17 -13 C-11.95575135 -18.04424865 -5.04424865 -5.04424865 0 0 Z " transform="translate(1616,899)" style="fill: #FAFDFC;"/><path d="M0 0 C2.31 0.66 4.62 1.32 7 2 C7 2.66 7 3.32 7 4 C9.31 4.33 11.62 4.66 14 5 C19.33572132 6.65900579 24.66874808 8.32668735 30 10 C35.32875953 11.35149698 40.66138652 12.68796787 46 14 C47.98 14.66 49.96 15.32 52 16 C55.66245966 16.68940417 59.32952303 17.35464141 63 18 C67.455 18.99 67.455 18.99 72 20 C75.66422492 20.67995926 79.33039695 21.3496906 83 22 C71.64401151 78.77994245 -38 87.93893695 -38 61 C-37.34 61 -36.68 61 -36 61 C-36 58.36 -36 55.72 -36 53 C-35.01 51.02 -34.02 49.04 -33 47 C-32.5875 44.710625 -32.175 42.42125 -31.75 40.0625 C-30 32 -30 32 -26 23 C-25.566875 20.256875 -25.13375 17.51375 -24.6875 14.6875 C-20.95006361 -6.76815335 -20.27959572 -7.3580834 0 0 Z " transform="translate(1586,1003)" style="fill: #FAFDFC;"/><path d="M0 0 C3.3 1.98 6.6 3.96 10 6 C10 6.66 10 7.32 10 8 C12.97 8.495 12.97 8.495 16 9 C18.475 10.98 18.475 10.98 21 13 C23.97970342 14.70268767 26.97688409 16.37563921 30 18 C30.33 18.33 30.66 18.66 31 19 C37.2981424 19.89442719 37.2981424 19.89442719 39 15 C45.77284376 14.7138235 51.53662901 15.27938709 58.25 16.5 C67.97796583 18.16765128 77.67210031 19.73115987 87 16 C96.4938775 16 90.82605723 28 87 28 C82.79273846 42.82558829 80.55701593 56.62636046 80 72 C77 72 77 72 71 65 C56.42507257 55.89067035 42.76037792 56.99169766 29 68 C28.34 68 27.68 68 27 68 C26.34 69.32 25.68 70.64 25 72 C19.06089633 79.91880489 14.52719106 70.87447195 8 65 C7.34 64.67 6.68 64.34 6 64 C5.505 48.655 5.505 48.655 5 33 C-1.8444124 26.1555876 -3.00777635 26.11024707 -13 25 C-14 20 -14 20 -13 18 C-12.896875 16.2675 -12.79375 14.535 -12.6875 12.75 C-9.87951807 -14.81927711 -9.87951807 -14.81927711 0 0 Z " transform="translate(1152,766)" style="fill: #F8FCFC;"/><path d="M0 0 C3.465 1.485 3.465 1.485 7 3 C46.33819242 33.55393586 46.33819242 33.55393586 30 39 C26.07698154 50.32795664 26.07698154 50.32795664 30 50 C32.31 58.25 34.62 66.5 37 75 C39.97 78.3 42.94 81.6 46 85 C46 99.30810554 21 94.54954015 21 88 C19.35 87.67 17.7 87.34 16 87 C-1 72.32876712 -1 72.32876712 -1 66 C-1.66 66 -2.32 66 -3 66 C-6.37500846 59.43748354 -9.26132532 52.84668669 -12 46 C-14.3122157 40.99019931 -16.64186952 35.98835294 -19 31 C-17.92836396 25.64181979 -16.0478663 21.05566992 -14 16 C-8.57142857 -5.71428571 -8.57142857 -5.71428571 0 0 Z " transform="translate(1168,500)" style="fill: #09869B;"/><path d="M0 0 C0.4640625 2.00707031 0.928125 4.01414062 1.40625 6.08203125 C2.5 11.1875 2.5 11.1875 2.5 14.1875 C3.49 14.5175 4.48 14.8475 5.5 15.1875 C5.5 15.8475 5.5 16.5075 5.5 17.1875 C7.81 17.8475 10.12 18.5075 12.5 19.1875 C14.975 21.6625 14.975 21.6625 17.5 24.1875 C16.84 22.8675 16.18 21.5475 15.5 20.1875 C17.96889009 5.37415945 19.97466045 20.3580859 20.5 27.1875 C25.84164079 26.4856424 25.84164079 26.4856424 26.5 17.1875 C28.5 17.1875 28.5 17.1875 31.5 29.1875 C34.54349839 31.08192719 34.54349839 31.08192719 33.5 23.1875 C40.28652284 19.79423858 39.5 21.53423701 39.5 29.1875 C42.97572957 29.50372777 42.97572957 29.50372777 44.5 20.1875 C48.5 19.1875 48.5 19.1875 50.5 32.1875 C54 32.52083333 54 32.52083333 52.5 23.1875 C53.16 23.1875 53.82 23.1875 54.5 23.1875 C54.5 22.5275 54.5 21.8675 54.5 21.1875 C57.02435744 21.81858936 61.97361906 25.1875 56.5 25.1875 C56.5 37.84457262 60.00111598 24.67522417 60.5 19.1875 C74.36355263 8.0966579 66.54745579 32.39704758 65.5 40.1875 C64.84 40.1875 64.18 40.1875 63.5 40.1875 C63.17 41.8375 62.84 43.4875 62.5 45.1875 C53.99660342 53.69089658 34.82990981 55.17354466 25.625 46.5625 C19.16793176 40.89609318 12.48283595 35.65213512 5.671875 30.421875 C-10.93918681 17.54363607 -6.78845625 -29.4732142 0 0 Z " transform="translate(1017.5,415.8125)" style="fill: #E7F5F6;"/><path d="M0 0 C3.87624682 16.6725315 8.49071269 31.85484095 17.046875 46.828125 C17.046875 50.828125 17.046875 50.828125 13.359375 53.640625 C9.36011632 56.79298184 5.43425981 60.03879939 1.546875 63.328125 C-16.98776593 79.01128271 -17.01669579 77.31798064 -17.265625 54.203125 C-17.30751953 52.19347656 -17.34941406 50.18382812 -17.39257812 48.11328125 C-17.44410468 41.70337827 -17.52629582 7.828125 -9.953125 7.828125 C-9.623125 5.188125 -9.293125 2.548125 -8.953125 -0.171875 C-4.75610296 -5.41815255 -1.77924615 -7.78784792 0 0 Z " transform="translate(1261.953125,795.171875)" style="fill: #EFF8F8;"/><path d="M0 0 C2.475 0.99 2.475 0.99 5 2 C12.39588162 10.87505794 7.48569464 23 -5 23 C-5 23.66 -5 24.32 -5 25 C-45.74714292 38.58238097 -45.33747294 -9.41718412 0 0 Z " transform="translate(1050,355)" style="fill: #108296;"/><path d="M0 0 C0.02513672 2.43310547 0.05027344 4.86621094 0.07617188 7.37304688 C0.14411676 24.11013701 -0.50803605 39.47708413 -7.1875 55.0625 C-7.5175 57.3725 -7.8475 59.6825 -8.1875 62.0625 C-9.1775 64.0425 -10.1675 66.0225 -11.1875 68.0625 C-12.1775 71.0325 -13.1675 74.0025 -14.1875 77.0625 C-17.12057951 82.43292727 -20.11990926 87.76775435 -23.1875 93.0625 C-24.5075 95.3725 -25.8275 97.6825 -27.1875 100.0625 C-36.53295922 107.07159442 -29.23413446 94.60382045 -27.8125 90.9375 C-25.41617105 84.66140036 -23.74699563 78.58402717 -22.1875 72.0625 C-21.1975 69.0925 -20.2075 66.1225 -19.1875 63.0625 C-18.5275 60.7525 -17.8675 58.4425 -17.1875 56.0625 C-16.5275 56.0625 -15.8675 56.0625 -15.1875 56.0625 C-15.1875 53.0925 -15.1875 50.1225 -15.1875 47.0625 C-14.61711572 43.75692412 -13.96820222 40.46413787 -13.25 37.1875 C-11.7665977 30.13216611 -10.61181029 23.2757749 -10.1875 16.0625 C-9.8575 15.4025 -9.5275 14.7425 -9.1875 14.0625 C-8.91035156 11.36578125 -8.63320313 8.6690625 -8.34765625 5.890625 C-7.98192158 2.36456769 -7.61602793 -1.16147312 -7.25 -4.6875 C-7.06759766 -6.46640625 -6.88519531 -8.2453125 -6.69726562 -10.078125 C-3.17905572 -43.85294011 -0.0925909 -17.0940439 0 0 Z " transform="translate(425.1875,1377.9375)" style="fill: #D8EFF1;"/><path d="M0 0 C-1.98 0.66 -3.96 1.32 -6 2 C-9.04720939 7.20552708 -9.04720939 7.20552708 -5 8 C-2.525 13.445 -2.525 13.445 0 19 C1.32 19.66 2.64 20.32 4 21 C4 31.46988449 -25 33.62389529 -25 25 C-29.29 24.67 -33.58 24.34 -38 24 C-39 20 -39 20 -30 15 C-30.64644661 11.88214887 -30.64644661 11.88214887 -33 11 C-31.05576995 1.27884977 -28.31286646 4.87949046 -16 4 C-18.64 2.35 -21.28 0.7 -24 -1 C-21.52116493 -10.91534027 0 -13.26288509 0 0 Z " transform="translate(1094,694)" style="fill: #E2F3F4;"/><path d="M0 0 C-13.01488147 0 -33.83861927 -22 -25 -22 C-24.67 -22.99 -24.34 -23.98 -24 -25 C-22.35 -25.66 -20.7 -26.32 -19 -27 C-17.68 -27.66 -16.36 -28.32 -15 -29 C8.64242935 -32.94040489 17.18557566 -20.62269079 0 0 Z " transform="translate(1102,385)" style="fill: #108399;"/><path d="M0 0 C1.32 0.66 2.64 1.32 4 2 C11.24419308 27.35467579 -14.33525631 27.05395307 -30 14 C-33.3 13.67 -36.6 13.34 -40 13 C-40 10 -40 10 -35 9 C-35 8.34 -35 7.68 -35 7 C-34.01 7 -33.02 7 -32 7 C-31.34 4.69 -30.68 2.38 -30 0 C-4.4516129 -5.93548387 -4.4516129 -5.93548387 0 0 Z " transform="translate(1098,760)" style="fill: #EDF9F9;"/><path d="M0 0 C1.32 0.66 2.64 1.32 4 2 C4 3.65 4 5.3 4 7 C7 7.33333333 7 7.33333333 6 1 C10 0 10 0 11 8 C15.26491106 9.9486833 15.26491106 9.9486833 14 1 C20 2 20 2 20 10 C25.95156878 10.66436384 25.95156878 10.66436384 25 -2 C28 -2 28 -2 30 10 C35.45521375 12.05098771 35.45521375 12.05098771 34 2 C38 2 38 2 38 12 C44.13627848 10.39155542 44.13627848 10.39155542 44 2 C46 3 46 3 46 8 C46.99 8 47.98 8 49 8 C49 13 49 13 45 16 C44.34 19.63 43.68 23.26 43 27 C38.55952381 27 37.63095238 22 42 22 C41.39856207 20.1956862 38 14.80392692 38 20 C37.34 20 36.68 20 36 20 C36 22.97 36 25.94 36 29 C30.40495879 29 32 19.97512541 32 16 C26.59607276 17.80130908 26.87926766 21.72439405 26 27 C23 26 23 26 23 19 C16.96455963 19.38982978 16.96455963 19.38982978 17 27 C14 26 14 26 12 14 C8.52757965 13.66870542 8.52757965 13.66870542 9 23 C0.34767241 24.73046552 3 18.36459105 3 11 C-3.11093357 11 -0.03469491 16.86122034 1 21 C-2 20 -2 20 -4 17 C-6.31 16.01 -8.62 15.02 -11 14 C-7 13 -7 13 -5 14 C-4.67 12.35 -4.34 10.7 -4 9 C-3.34 8.34 -2.68 7.68 -2 7 C-1.53130516 0.4382723 0 -16.66714265 0 0 Z " transform="translate(1034,419)" style="fill: #58ACBB;"/><path d="M0 0 C0.66 0.66 1.32 1.32 2 2 C2 17.70862378 -22.08286904 13.93370477 -32 6 C-35.3 5.34 -38.6 4.68 -42 4 C-42 0 -42 0 -36 -3 C-34.35 -5.64 -32.7 -8.28 -31 -11 C-18.10671014 -23.89328986 -4.9590927 -9.9181854 0 0 Z " transform="translate(1099,740)" style="fill: #EAF7F7;"/><path d="M0 0 C4.64766723 4.5220546 9.50951847 8.52129215 14.625 12.5 C14.625 15.5 14.625 15.5 12.625 15.5 C12.625 16.16 12.625 16.82 12.625 17.5 C4.625 24.5 4.625 24.5 0.625 26.5 C-0.035 27.82 -0.695 29.14 -1.375 30.5 C-15.68849033 44.81349033 -34.77291932 -36.06080522 0 0 Z " transform="translate(1296.375,799.5)" style="fill: #F0F9F9;"/><path d="M0 0 C9.64842981 2.32596076 18.09147741 3.98170452 28 2 C46.79758823 30.19638235 6.86677834 23.86677834 -6 11 C-9.9 -3.3 -9.9 -3.3 0 0 Z " transform="translate(1120,578)" style="fill: #19809B;"/><path d="M0 0 C2.16433594 0.00902344 4.32867188 0.01804687 6.55859375 0.02734375 C19.7938063 0.12033119 30.33477151 22.0625 8.5625 22.0625 C0.5625 18.0625 0.5625 18.0625 0.5625 16.0625 C-1.9125 15.5675 -1.9125 15.5675 -4.4375 15.0625 C-6.0875 14.0725 -7.7375 13.0825 -9.4375 12.0625 C-13.08903456 10.68826656 -16.75428242 9.34940735 -20.4375 8.0625 C-22.76417703 -3.57088516 -8.18702209 -0.04425417 0 0 Z " transform="translate(1087.4375,786.9375)" style="fill: #ECF7F7;"/><path d="M0 0 C-0.66 0 -1.32 0 -2 0 C-2 0.66 -2 1.32 -2 2 C-7.88082196 3.17616439 -9.10994796 2.67015612 -11 -3 C-14.89597867 -3.47434165 -14.89597867 -3.47434165 -16 3 C-42.88842416 3 0 -67.27045124 0 0 Z " transform="translate(1077,403)" style="fill: #1A91A1;"/><path d="M0 0 C-0.37729148 8.66779153 -0.37729148 8.66779153 3.5625 13.9375 C4.5525 15.9175 5.5425 17.8975 6.5625 19.9375 C8.2125 21.5875 9.8625 23.2375 11.5625 24.9375 C11.5625 36.93462426 -13.4375 30.78503448 -13.4375 21.9375 C-14.4275 21.9375 -15.4175 21.9375 -16.4375 21.9375 C-16.4375 15.9375 -16.4375 15.9375 -11.4375 8.9375 C-10.08296272 5.61272668 -8.74892324 2.27951406 -7.4375 -1.0625 C-2.50590424 -8.45989364 -0.66779482 -9.2537282 0 0 Z " transform="translate(1706.4375,995.0625)" style="fill: #EDF8F8;"/><path d="M0 0 C2.64 0.99 5.28 1.98 8 3 C9.32 3.66 10.64 4.32 12 5 C15.96 5.33 19.92 5.66 24 6 C24 26.81282339 14.83747917 24.59819941 0 14 C-2.475 13.01 -2.475 13.01 -5 12 C-17.58179412 1.93456471 -17.6415262 -7.84067831 0 0 Z " transform="translate(1132,608)" style="fill: #1B83A7;"/></svg>